<svg width="36" height="36" viewBox="0 0 36 36" fill="none" xmlns="http://www.w3.org/2000/svg">
<path d="M28.3555 21.8857C28.3555 23.8073 29.9345 25.3713 31.8561 25.3713C31.8561 30.9573 30.4558 32.3575 24.8699 32.3575H10.8976C5.31168 32.3575 3.91147 30.9573 3.91147 25.3713V24.6861C5.83303 24.6861 7.41199 23.1072 7.41199 21.1856C7.41199 19.264 5.83303 17.6851 3.91147 17.6851V16.9999C3.92636 11.4139 5.31168 10.0137 10.8976 10.0137H24.855C30.4409 10.0137 31.8412 11.4139 31.8412 16.9999V18.4001C29.9196 18.4001 28.3555 19.9493 28.3555 21.8857Z" fill="white" stroke="#292724" stroke-width="2" stroke-linecap="round" stroke-linejoin="round"/>
<path opacity="0.4" d="M24.3353 10.014H10.795L15.1594 5.64957C18.7196 2.08947 20.507 2.08947 24.0672 5.64957L24.9609 6.54332C24.0225 7.48176 23.799 8.86707 24.3353 10.014Z" fill="white" stroke="#292724" stroke-width="2" stroke-linecap="round" stroke-linejoin="round"/>
<g opacity="0.4">
<path d="M14.903 10.0137V32.3575V10.0137Z" fill="white"/>
<path d="M14.903 10.0137V32.3575" stroke="#292724" stroke-width="2" stroke-linecap="round" stroke-linejoin="round" stroke-dasharray="12.5 12.5"/>
</g>
</svg>
