<svg width="20" height="20" viewBox="0 0 20 20" fill="none" xmlns="http://www.w3.org/2000/svg">
<path d="M17.2882 2.77387C16.9628 2.44842 16.4351 2.44842 16.1097 2.77387L10.031 8.85252L3.95237 2.77387C3.62694 2.44842 3.0993 2.44842 2.77387 2.77387C2.44842 3.0993 2.44842 3.62694 2.77387 3.95237L8.8525 10.031L2.77388 16.1096C2.44844 16.4351 2.44844 16.9627 2.77388 17.2882C3.09932 17.6136 3.62696 17.6136 3.95239 17.2882L10.031 11.2095L16.1097 17.2882C16.4351 17.6136 16.9628 17.6136 17.2882 17.2882C17.6136 16.9627 17.6136 16.4351 17.2882 16.1097L11.2095 10.031L17.2882 3.95237C17.6136 3.62694 17.6136 3.0993 17.2882 2.77387Z" fill="#292724"/>
</svg>
