<svg width="23" height="23" viewBox="0 0 23 23" fill="none" xmlns="http://www.w3.org/2000/svg">
<path d="M10.0625 7.90613C9.88041 7.90613 9.69833 7.83905 9.55458 7.6953L7.66666 5.80738L5.77875 7.6953C5.50083 7.97322 5.04083 7.97322 4.76291 7.6953C4.48499 7.41738 4.48499 6.95738 4.76291 6.67947L7.15874 4.28363C7.43666 4.00572 7.89666 4.00572 8.17458 4.28363L10.5704 6.67947C10.8483 6.95738 10.8483 7.41738 10.5704 7.6953C10.4267 7.83905 10.2446 7.90613 10.0625 7.90613Z" fill="#57707A"/>
<path d="M7.66666 18.9269C7.27374 18.9269 6.94791 18.6011 6.94791 18.2082V4.7915C6.94791 4.39859 7.27374 4.07275 7.66666 4.07275C8.05957 4.07275 8.38541 4.39859 8.38541 4.7915V18.2082C8.38541 18.6011 8.05957 18.9269 7.66666 18.9269Z" fill="#57707A"/>
<path d="M15.3333 18.9271C15.1513 18.9271 14.9692 18.86 14.8254 18.7163L12.4296 16.3205C12.1517 16.0425 12.1517 15.5825 12.4296 15.3046C12.7075 15.0267 13.1675 15.0267 13.4454 15.3046L15.3333 17.1925L17.2213 15.3046C17.4992 15.0267 17.9592 15.0267 18.2371 15.3046C18.515 15.5825 18.515 16.0425 18.2371 16.3205L15.8413 18.7163C15.6975 18.86 15.5154 18.9271 15.3333 18.9271Z" fill="#57707A"/>
<path d="M15.3333 18.9269C14.9404 18.9269 14.6146 18.6011 14.6146 18.2082V4.7915C14.6146 4.39859 14.9404 4.07275 15.3333 4.07275C15.7263 4.07275 16.0521 4.39859 16.0521 4.7915V18.2082C16.0521 18.6011 15.7263 18.9269 15.3333 18.9269Z" fill="#57707A"/>
</svg>
