<svg width="52" height="45" viewBox="0 0 52 45" fill="none" xmlns="http://www.w3.org/2000/svg">
<path d="M27.599 11.0209L27.6914 11.0484L27.6965 11.0425C28.034 11.0927 28.3641 10.8878 28.4633 10.5529C29.3309 7.63777 32.0644 5.60106 35.1097 5.60106C35.4934 5.60106 35.8045 5.28987 35.8045 4.90619C35.8045 4.5225 35.4933 4.21133 35.1097 4.21133C31.3288 4.21133 28.1517 6.72868 27.1315 10.1568C27.0219 10.5247 27.2315 10.9112 27.599 11.0209Z" fill="#292724" stroke="#F9FFF9" stroke-width="0.3"/>
<path d="M42.7374 31.6044H39.4682C39.1674 31.6044 38.9234 31.3604 38.9234 31.0595C38.9234 30.7587 39.1674 30.5147 39.4682 30.5147H42.7374C47.2437 30.5147 50.9103 26.8481 50.9103 22.3417C50.9103 17.8354 47.2437 14.1688 42.7374 14.1688H42.6588C42.5007 14.1688 42.3505 14.1003 42.247 13.9809C42.1435 13.8614 42.0968 13.703 42.1193 13.5465C42.168 13.2072 42.1925 12.8662 42.1925 12.5343C42.1925 8.62879 39.0148 5.45103 35.1093 5.45103C33.5899 5.45103 32.1409 5.92584 30.9189 6.82446C30.6503 7.02178 30.2689 6.93421 30.1136 6.63881C26.6526 0.0483595 17.6128 -0.836671 12.9261 4.89645C10.9518 7.31173 10.1761 10.4536 10.7977 13.5158C10.8662 13.854 10.6074 14.1693 10.2637 14.1693H10.0454C5.53904 14.1693 1.87249 17.8358 1.87249 22.3422C1.87249 26.8485 5.53904 30.5151 10.0454 30.5151H13.3145C13.6154 30.5151 13.8594 30.7591 13.8594 31.0599C13.8594 31.3608 13.6154 31.6048 13.3145 31.6048H10.0454C4.93806 31.6048 0.782715 27.4495 0.782715 22.3421C0.782715 17.3781 4.70801 13.3134 9.61768 13.0892C9.15649 9.91224 10.0384 6.70768 12.0824 4.20682C17.1001 -1.93181 26.7163 -1.24375 30.7813 5.60127C32.0781 4.78825 33.562 4.36174 35.1091 4.36174C39.8408 4.36174 43.5903 8.38907 43.2622 13.0943C48.1266 13.3671 51.9998 17.4103 51.9998 22.3417C51.9998 27.4495 47.8445 31.6044 42.7371 31.6044L42.7374 31.6044Z" fill="#292724"/>
<path d="M12.5468 30.7516C12.5468 38.3455 18.7247 44.5232 26.3185 44.5232C33.9124 44.5232 40.0901 38.3454 40.0901 30.7516C40.0901 23.1577 33.9124 16.9799 26.3185 16.9799C18.7246 16.9799 12.5468 23.1578 12.5468 30.7516ZM13.9368 30.7516C13.9368 23.9245 19.4913 18.3699 26.3185 18.3699C33.1455 18.3699 38.7002 23.9244 38.7002 30.7516C38.7002 37.5786 33.1455 43.1333 26.3185 43.1333C19.4914 43.1333 13.9368 37.5787 13.9368 30.7516Z" fill="#292724" stroke="#F9FFF9" stroke-width="0.3"/>
<path d="M26.0189 36.2352C26.0189 36.5383 26.2648 36.7841 26.5678 36.7841C26.8709 36.7841 27.1167 36.5387 27.1167 36.2352V25.8637C27.1167 25.5606 26.8709 25.3148 26.5678 25.3148C26.2647 25.3148 26.0189 25.5607 26.0189 25.8637V36.2352Z" fill="#292724" stroke="#483EA8" stroke-width="0.3"/>
<path d="M26.5677 26.6411L23.7647 29.444L23.7647 29.4441L26.5677 26.6411ZM26.5677 26.6411L29.3707 29.4441C29.4778 29.5511 29.6187 29.6049 29.7589 29.6049L26.5677 26.6411ZM26.9558 25.4766C26.7414 25.2623 26.3937 25.2621 26.1794 25.4767L29.7589 29.6049C29.8988 29.6049 30.0399 29.5516 30.1472 29.4439C30.3614 29.2295 30.3614 28.8822 30.147 28.6678L26.9558 25.4766Z" fill="#292724" stroke="#483EA8" stroke-width="0.3"/>
</svg>
