<svg width="28" height="32" viewBox="0 0 28 32" fill="none" xmlns="http://www.w3.org/2000/svg">
<path d="M4.66669 7.15252C4.66669 6.81649 4.7896 6.49421 5.0084 6.2566C5.22719 6.01899 5.52393 5.8855 5.83335 5.8855H10.5C10.8094 5.8855 11.1062 6.01899 11.325 6.2566C11.5438 6.49421 11.6667 6.81649 11.6667 7.15252V13.4876C11.6667 13.8237 11.5438 14.146 11.325 14.3836C11.1062 14.6212 10.8094 14.7547 10.5 14.7547H5.83335C5.52393 14.7547 5.22719 14.6212 5.0084 14.3836C4.7896 14.146 4.66669 13.8237 4.66669 13.4876V7.15252ZM16.3334 7.15252C16.3334 6.81649 16.4563 6.49421 16.6751 6.2566C16.8939 6.01899 17.1906 5.8855 17.5 5.8855H22.1667C22.4761 5.8855 22.7729 6.01899 22.9916 6.2566C23.2104 6.49421 23.3334 6.81649 23.3334 7.15252V9.68657C23.3334 10.0226 23.2104 10.3449 22.9916 10.5825C22.7729 10.8201 22.4761 10.9536 22.1667 10.9536H17.5C17.1906 10.9536 16.8939 10.8201 16.6751 10.5825C16.4563 10.3449 16.3334 10.0226 16.3334 9.68657V7.15252ZM4.66669 21.0898C4.66669 20.7538 4.7896 20.4315 5.0084 20.1939C5.22719 19.9563 5.52393 19.8228 5.83335 19.8228H10.5C10.8094 19.8228 11.1062 19.9563 11.325 20.1939C11.5438 20.4315 11.6667 20.7538 11.6667 21.0898V24.8909C11.6667 25.2269 11.5438 25.5492 11.325 25.7868C11.1062 26.0244 10.8094 26.1579 10.5 26.1579H5.83335C5.52393 26.1579 5.22719 26.0244 5.0084 25.7868C4.7896 25.5492 4.66669 25.2269 4.66669 24.8909V21.0898ZM16.3334 17.2887C16.3334 16.9527 16.4563 16.6304 16.6751 16.3928C16.8939 16.1552 17.1906 16.0217 17.5 16.0217H22.1667C22.4761 16.0217 22.7729 16.1552 22.9916 16.3928C23.2104 16.6304 23.3334 16.9527 23.3334 17.2887V24.8909C23.3334 25.2269 23.2104 25.5492 22.9916 25.7868C22.7729 26.0244 22.4761 26.1579 22.1667 26.1579H17.5C17.1906 26.1579 16.8939 26.0244 16.6751 25.7868C16.4563 25.5492 16.3334 25.2269 16.3334 24.8909V17.2887Z" stroke="#292724" stroke-width="1.5"/>
</svg>
