<svg width="26" height="26" viewBox="0 0 26 26" fill="none" xmlns="http://www.w3.org/2000/svg">
<path d="M16.114 9.45917C16.2953 9.27789 16.2953 8.98392 16.114 8.80259C15.9328 8.62131 15.6389 8.62131 15.4574 8.80259L9.88596 14.374C9.70468 14.5553 9.70468 14.8493 9.88596 15.0307C9.97662 15.1213 10.0954 15.1666 10.2142 15.1666C10.333 15.1666 10.4518 15.1213 10.5425 15.0307L16.114 9.45917Z" fill="#292724"/>
<path d="M11.375 7.58331C10.4789 7.58331 9.75 8.31223 9.75 9.20827C9.75 10.1044 10.4789 10.8333 11.375 10.8333C12.2711 10.8333 13 10.1044 13 9.20827C13 8.31223 12.271 7.58331 11.375 7.58331ZM11.375 10.0208C10.927 10.0208 10.5625 9.65631 10.5625 9.20827C10.5625 8.76031 10.927 8.39583 11.375 8.39583C11.823 8.39583 12.1875 8.76031 12.1875 9.20827C12.1875 9.65631 11.823 10.0208 11.375 10.0208Z" fill="#292724"/>
<path d="M14.625 13C13.7289 13 13 13.729 13 14.6251C13 15.521 13.7289 16.25 14.625 16.25C15.5211 16.25 16.25 15.5211 16.25 14.6251C16.25 13.729 15.521 13 14.625 13ZM14.625 15.4375C14.177 15.4375 13.8125 15.073 13.8125 14.6251C13.8125 14.177 14.177 13.8125 14.625 13.8125C15.073 13.8125 15.4375 14.177 15.4375 14.6251C15.4375 15.073 15.073 15.4375 14.625 15.4375Z" fill="#292724"/>
<path d="M23.3137 11.9166C23.6557 11.3575 23.7845 10.6922 23.6689 10.0354C23.553 9.37873 23.2043 8.79749 22.6916 8.38916C22.8218 7.74688 22.7154 7.07758 22.382 6.4999C22.0484 5.92236 21.522 5.49554 20.9006 5.28714C20.8032 4.63876 20.4742 4.0462 19.9636 3.61775C19.4596 3.19475 18.8153 2.96816 18.1569 2.98492C17.8437 2.40901 17.3318 1.96467 16.7051 1.73646C16.4064 1.62779 16.0949 1.57264 15.7793 1.57264C15.4406 1.57264 15.1054 1.63668 14.7911 1.75977C14.3 1.32574 13.667 1.08331 13 1.08331C12.333 1.08331 11.7 1.32574 11.2089 1.75982C10.8946 1.63668 10.5594 1.57269 10.2207 1.57269C9.90507 1.57269 9.59362 1.62779 9.29472 1.73656C8.66798 1.96477 8.15611 2.40921 7.84299 2.98502C7.18446 2.96867 6.54045 3.1949 6.03655 3.61775C5.52559 4.0464 5.19658 4.63891 5.09923 5.28719C4.47782 5.49554 3.95152 5.92241 3.61804 6.49995C3.28461 7.07748 3.17802 7.74678 3.30823 8.38916C2.79549 8.79765 2.44692 9.37884 2.33135 10.0354C2.21541 10.6921 2.34425 11.3575 2.68631 11.9167C2.34435 12.4758 2.21546 13.1412 2.3313 13.7977C2.44692 14.4544 2.79549 15.0357 3.30823 15.4442C3.17812 16.0866 3.28461 16.756 3.61804 17.3335C3.95137 17.9109 4.47777 18.3377 5.09923 18.5462C5.19663 19.1943 5.52559 19.7869 6.03645 20.2156C6.54045 20.6386 7.18502 20.8642 7.84309 20.8483C8.15636 21.4243 8.66819 21.8687 9.29493 22.0969C9.59373 22.2056 9.90522 22.2607 10.2208 22.2607C10.5595 22.2607 10.8948 22.1967 11.209 22.0736C11.7001 22.5076 12.3331 22.7501 13.0001 22.7501C13.667 22.7501 14.3 22.5076 14.7911 22.0736C15.1053 22.1967 15.4405 22.2607 15.7792 22.2607C16.0949 22.2607 16.4064 22.2056 16.7052 22.0968C17.3318 21.8687 17.8437 21.4243 18.157 20.8483C18.8143 20.864 19.4596 20.6385 19.9636 20.2156C20.4745 19.7869 20.8035 19.1943 20.9008 18.5462C21.5223 18.3377 22.0486 17.9109 22.3821 17.3334C22.7155 16.7558 22.8219 16.0864 22.6917 15.444C23.2045 15.0357 23.5531 14.4545 23.669 13.7977C23.7845 13.141 23.6556 12.4757 23.3137 11.9166ZM22.602 13.6096C22.5172 14.0904 22.2242 14.5036 21.7982 14.7436C21.5654 14.8747 21.463 15.1561 21.557 15.4063C21.7292 15.8639 21.6878 16.3689 21.4438 16.7916C21.1997 17.2143 20.7831 17.5026 20.3007 17.5825C20.0371 17.6262 19.8447 17.8555 19.8476 18.1227C19.8527 18.6115 19.6412 19.0718 19.2671 19.3856C18.9751 19.6307 18.6047 19.7657 18.224 19.7658C18.1232 19.7658 18.0218 19.7563 17.9227 19.7378C17.6603 19.6885 17.4009 19.8383 17.3122 20.0902C17.1497 20.5516 16.7934 20.9118 16.3348 21.0788C15.8789 21.2447 15.3662 21.1955 14.9506 20.9498C14.7207 20.814 14.4259 20.8658 14.2564 21.0723C13.9462 21.4501 13.4883 21.6667 13.0002 21.6667C12.512 21.6667 12.0541 21.4501 11.7439 21.0723C11.6378 20.9431 11.4826 20.8744 11.325 20.8744C11.2308 20.8744 11.1357 20.899 11.0497 20.9499C10.6342 21.1955 10.1212 21.2446 9.66553 21.0789C9.20682 20.9119 8.85059 20.5516 8.68809 20.0903C8.59938 19.8384 8.34039 19.6885 8.0776 19.7379C7.97842 19.7564 7.87701 19.7659 7.77621 19.7659C7.39566 19.7659 7.02521 19.6309 6.73307 19.3857C6.35911 19.0719 6.14756 18.6116 6.15269 18.1228C6.15558 17.8556 5.96317 17.6264 5.69957 17.5827C5.21719 17.5028 4.80048 17.2145 4.55648 16.7919C4.31242 16.3691 4.27104 15.8641 4.44298 15.4064C4.53693 15.1564 4.4346 14.8751 4.20187 14.744C3.77587 14.5038 3.48301 14.0906 3.39836 13.6098C3.31361 13.129 3.44732 12.6405 3.76546 12.2694C3.93934 12.0666 3.93939 11.7673 3.76556 11.5644C3.44737 11.1931 3.31356 10.7044 3.39841 10.2236C3.48307 9.74294 3.77587 9.32963 4.20182 9.08959C4.43455 8.95847 4.53698 8.67714 4.44293 8.42715C4.27094 7.9695 4.31232 7.46454 4.55648 7.04183C4.80059 6.61903 5.21714 6.33079 5.69946 6.25102C5.96312 6.2074 6.15553 5.97807 6.15269 5.71091C6.14756 5.22193 6.35906 4.7616 6.73312 4.44782C7.02521 4.2027 7.39561 4.06768 7.77632 4.06768C7.87712 4.06768 7.97853 4.07707 8.0777 4.09561C8.34044 4.14491 8.59953 3.99501 8.68819 3.74298C8.85049 3.28199 9.20672 2.9217 9.66548 2.75468C10.1213 2.58877 10.6342 2.63798 11.0497 2.88366C11.2798 3.0196 11.5745 2.96755 11.744 2.76107C12.0539 2.38347 12.5118 2.16688 13.0001 2.16688C13.4884 2.16688 13.9463 2.38352 14.2563 2.76113C14.4258 2.96755 14.7203 3.0197 14.9506 2.88371C15.366 2.63813 15.8792 2.58898 16.3347 2.75468C16.7934 2.92175 17.1497 3.28199 17.3122 3.74323C17.4009 3.99521 17.6605 4.14466 17.9227 4.09566C18.0218 4.07707 18.1232 4.06768 18.224 4.06768C18.6046 4.06768 18.975 4.2027 19.2672 4.44788C19.641 4.76145 19.8526 5.22188 19.8476 5.71111C19.8448 5.97822 20.0372 6.20745 20.3008 6.25107C20.7831 6.33084 21.1997 6.61908 21.4438 7.04183C21.6879 7.46474 21.7292 7.96961 21.5572 8.42704C21.4631 8.67719 21.5654 8.95852 21.7983 9.08969C22.2243 9.32968 22.5173 9.74309 22.6021 10.2238C22.6868 10.7046 22.5528 11.1933 22.2347 11.5645C22.0609 11.7674 22.0609 12.0666 22.2348 12.2695C22.5527 12.6404 22.6867 13.129 22.602 13.6096Z" fill="#292724" stroke="#292724" stroke-width="0.5"/>
<path d="M14.6078 6.54454C14.8315 6.61772 15.0722 6.49571 15.1454 6.27176C15.2186 6.04785 15.0966 5.80699 14.8729 5.73369C13.8076 5.38493 12.665 5.32246 11.5685 5.55337C8.74197 6.14851 6.658 8.58023 6.50064 11.4668C6.48782 11.7021 6.66799 11.9031 6.90298 11.916C6.91089 11.9164 6.91876 11.9166 6.9266 11.9166C7.15136 11.9166 7.33944 11.7406 7.35183 11.5133C7.48817 9.01153 9.29427 6.90402 11.744 6.38822C12.6943 6.18818 13.6845 6.24221 14.6078 6.54454Z" fill="#292724"/>
<path d="M19.097 11.9173C18.8614 11.9044 18.661 12.0848 18.6482 12.32C18.5119 14.8217 16.7058 16.9292 14.256 17.445C13.3059 17.645 12.3156 17.5911 11.3923 17.2887C11.1686 17.2155 10.9279 17.3375 10.8546 17.5614C10.7814 17.7853 10.9035 18.0262 11.1271 18.0995C11.7713 18.3104 12.4434 18.4166 13.1167 18.4166C13.5571 18.4166 13.998 18.3712 14.4316 18.2798C17.2581 17.6848 19.3421 15.253 19.4994 12.3664C19.5122 12.1312 19.3321 11.9301 19.097 11.9173Z" fill="#292724" stroke="#292724" stroke-width="0.5"/>
<path d="M7.48616 13.3148C7.43344 13.1038 7.17258 12.9661 6.9024 13.0073C6.63268 13.0485 6.45664 13.2529 6.50932 13.4639C6.5361 13.5713 6.56764 13.681 6.60314 13.79C6.66048 13.9662 6.86293 14.0833 7.08515 14.0833C7.12574 14.0833 7.16708 14.0794 7.20828 14.0712C7.47464 14.0182 7.6356 13.8063 7.56786 13.5979C7.53678 13.5031 7.5094 13.4078 7.48616 13.3148Z" fill="#292724"/>
<path d="M18.5138 10.5186C18.5601 10.7044 18.7683 10.8333 19.0017 10.8333C19.0333 10.8333 19.0654 10.831 19.0976 10.826C19.3674 10.7848 19.5434 10.5804 19.4907 10.3694C19.4639 10.262 19.4323 10.1523 19.3969 10.0434C19.329 9.83503 19.0584 9.70902 18.7918 9.76216C18.5254 9.81518 18.3644 10.027 18.4322 10.2354C18.4631 10.3302 18.4905 10.4254 18.5138 10.5186Z" fill="#292724"/>
</svg>
