<svg width="32" height="32" viewBox="0 0 32 32" fill="none" xmlns="http://www.w3.org/2000/svg">
<path d="M16.3994 5.54821C18.3984 5.89505 20.7642 5.22348 22.4526 6.60968C22.5096 6.66231 22.6239 6.67481 22.7097 6.67018C24.0939 6.47408 25.6603 6.52521 25.7479 8.27498C25.8198 9.49768 25.8006 10.7335 25.7457 11.9595C26.49 12.1059 27.1006 12.6196 27.0757 13.4373C27.0684 14.3542 27.0727 15.279 26.8122 16.1688C26.4283 18.0252 23.8853 17.2741 23.955 15.7302C24.0253 14.2191 24.2204 12.7107 24.3008 11.199C24.3223 10.2186 24.4503 9.21578 24.2444 8.24805C24.228 8.17215 24.1163 8.06718 24.0421 8.06191C23.7425 8.04065 23.4405 8.05308 23.1225 8.05308C23.3717 11.9382 23.477 15.8168 23.5177 19.7076C23.4363 21.4513 23.457 23.9126 21.4246 24.4843C21.6321 25.4832 21.2967 26.52 20.1171 26.4056C19.1761 26.3559 18.3981 25.9598 18.5238 24.8138C16.5807 24.9092 14.6396 25.0044 12.6663 25.1013C12.7906 25.9483 12.0192 26.5446 11.1952 26.4005C10.6968 26.3298 10.2339 25.5116 10.3892 24.7765C9.22199 24.319 8.58989 23.4122 8.55119 22.1933C8.41376 17.5688 8.08479 12.8963 8.70383 8.29631C7.28676 8.28475 7.42236 10.126 7.41919 11.1306C7.48773 12.6096 7.60023 14.0887 7.61273 15.5693C7.76343 17.1627 5.16753 17.6821 4.80656 16.0779C4.53653 15.1236 4.53046 14.1394 4.56523 13.1628C4.65576 11.7036 6.07589 12.0217 5.93123 11.3577C5.71193 9.29341 6.29279 6.48965 8.96409 6.98021C9.57356 7.00958 9.63909 5.57201 11.6191 5.59201C13.2148 5.62948 14.8052 5.54218 16.3994 5.54821ZM22.0045 15.1175C21.9451 12.8473 21.7905 10.5815 21.6952 8.31155C21.6754 7.90718 21.5061 7.58438 21.1056 7.44575C19.7813 6.94038 11.6713 6.65531 10.8187 7.67435C9.81846 8.60248 10.0877 10.1042 9.92636 11.3348C9.86816 12.459 9.84039 13.5848 9.79416 14.7096C9.78846 14.8485 9.84273 14.914 9.96863 14.9489C13.8675 16.0965 18.0618 16.0443 22.0045 15.1175ZM22.0716 16.8029C17.9741 17.8076 13.914 17.6426 9.85559 16.7136C9.86736 18.5229 9.95033 20.3442 10.0124 22.1561C10.0436 22.8955 10.4364 23.2998 11.1669 23.4566C13.5956 23.8442 16.0638 23.4055 18.5043 23.3349C19.2564 23.2893 20.009 23.2442 20.7586 23.1704C21.2228 23.1246 21.5972 22.8866 21.7216 22.4174C22.2489 20.5999 22.1248 18.6727 22.0716 16.8029Z" fill="#292724"/>
<path d="M29.7799 24.7899C28.5924 24.4879 27.4209 24.0259 26.2516 23.6457C25.223 23.1889 25.855 21.7701 27.1446 22.3273C28.186 22.6796 29.2964 22.8864 30.294 23.3455C30.9758 23.7957 30.6089 24.8279 29.7799 24.7899Z" fill="#292724"/>
<path d="M2.15268 24.275C1.41222 24.3115 1.06919 23.4274 1.62465 22.9961C2.41409 22.5631 3.36264 22.4819 4.21131 22.1869C4.68094 22.0589 5.14344 21.7601 5.64247 21.8027C6.17477 21.8631 6.30681 22.7024 5.83704 22.9453C5.57991 23.1006 5.30191 23.2309 5.01854 23.3313C4.07378 23.6429 3.11175 24.0305 2.15268 24.275Z" fill="#292724"/>
<path d="M25.7068 20.6416C24.7824 20.6394 24.7301 19.6766 25.3674 19.3001C26.113 18.8228 26.8124 18.2421 27.6089 17.8566C28.5913 17.5657 28.9936 18.8506 28.1108 19.2862C27.3372 19.7213 26.5203 20.3233 25.7068 20.6416Z" fill="#292724"/>
<path d="M5.7265 20.2202C5.3322 20.0936 4.78124 19.9463 4.25504 19.7368C3.551 19.4471 3.97024 18.3091 4.6936 18.5252C5.21977 18.6864 5.73604 18.8892 6.23867 19.1143C6.5098 19.2357 6.5992 19.5359 6.5223 19.7997C6.44207 20.0749 6.20834 20.2307 5.7265 20.2202Z" fill="#292724"/>
<path d="M12.5385 20.3274C12.8321 20.3274 13.1274 20.3074 13.4189 20.3322C14.3467 20.4212 14.2938 21.7042 13.3513 21.7324C12.5459 21.7398 10.9194 22.3498 10.9385 21.0266C11.035 20.2044 11.9155 20.3008 12.5384 20.3183C12.5384 20.3213 12.5385 20.3243 12.5385 20.3274Z" fill="#292724"/>
<path d="M19.1422 20.0986C19.8657 20.1623 21.3666 19.7539 21.3523 20.8599C21.2508 21.7828 19.9448 21.4762 19.278 21.648C18.0437 21.8312 17.9004 20.0273 19.1422 20.0986Z" fill="#292724"/>
</svg>
