<svg width="24" height="24" viewBox="0 0 24 24" fill="none" xmlns="http://www.w3.org/2000/svg">
<g clip-path="url(#clip0_430_12667)">
<path d="M7.22223 4.06531C3.79122 4.06531 1 6.85653 1 10.2875C1 11.9236 1.76477 14.312 2.94794 16.3722C4.29602 18.7191 5.85377 20.0653 7.22223 20.0653C8.5907 20.0653 10.1485 18.7191 11.4965 16.3722C12.6797 14.312 13.4444 11.9236 13.4444 10.2875C13.4445 6.85653 10.6532 4.06531 7.22223 4.06531ZM7.22223 19.1764C5.29127 19.1764 1.88889 14.0378 1.88889 10.2875C1.88889 7.34679 4.28125 4.9542 7.22223 4.9542C10.1632 4.9542 12.5556 7.34679 12.5556 10.2875C12.5555 14.0377 9.1532 19.1764 7.22223 19.1764Z" fill="#292724" stroke="#292724" stroke-width="0.5"/>
<path d="M7.22224 7.17627C5.50694 7.17627 4.11115 8.57188 4.11115 10.2874C4.11115 12.0028 5.50699 13.3985 7.22224 13.3985C8.93749 13.3985 10.3333 12.0028 10.3333 10.2874C10.3333 8.57188 8.93749 7.17627 7.22224 7.17627ZM7.22224 12.5096C5.99697 12.5096 5.00004 11.5126 5.00004 10.2874C5.00004 9.0621 5.99702 8.06516 7.22224 8.06516C8.4475 8.06516 9.44444 9.0621 9.44444 10.2874C9.44444 11.5126 8.4475 12.5096 7.22224 12.5096Z" fill="#292724"/>
<path d="M18.5555 0.621094C16.105 0.621094 14.1111 2.61478 14.1111 5.06555C14.1111 7.30317 16.812 11.7322 18.5555 11.7322C20.2991 11.7322 23 7.30317 23 5.06555C23 2.61483 21.0061 0.621094 18.5555 0.621094ZM18.5555 10.8433C17.6224 10.8433 15 7.19597 15 5.06555C15 3.10505 16.595 1.50998 18.5555 1.50998C20.516 1.50998 22.1111 3.10505 22.1111 5.06555C22.1111 7.19597 19.4887 10.8433 18.5555 10.8433Z" fill="#292724" stroke="#292724" stroke-width="0.5"/>
<path d="M18.5556 2.84326C17.3303 2.84326 16.3334 3.8402 16.3334 5.06546C16.3334 6.29073 17.3304 7.28767 18.5556 7.28767C19.7808 7.28767 20.7778 6.29068 20.7778 5.06546C20.7778 3.8402 19.7808 2.84326 18.5556 2.84326ZM18.5556 6.39882C17.8203 6.39882 17.2223 5.80075 17.2223 5.06551C17.2223 4.33028 17.8203 3.7322 18.5556 3.7322C19.2908 3.7322 19.8889 4.33028 19.8889 5.06551C19.8889 5.8007 19.2908 6.39882 18.5556 6.39882Z" fill="#292724"/>
<path d="M15.2847 17.1684C14.7491 16.7224 14.5026 16.2522 14.5299 15.7307C14.5907 14.568 16.0308 13.3583 16.5803 12.9905C16.7839 12.854 16.8389 12.5782 16.7027 12.3742C16.5664 12.1699 16.2899 12.1146 16.0868 12.2511C15.9909 12.3149 13.7409 13.8355 13.6424 15.6819C13.5989 16.4918 13.9601 17.2218 14.7153 17.8512C16.3633 19.2247 17.2773 20.6148 17.0434 21.3931C16.8438 22.0565 15.7951 22.3075 14.951 22.4015C11.1259 22.8271 8.09418 21.5584 8.06338 21.5456C7.83726 21.4487 7.57682 21.5541 7.48049 21.7796C7.38412 22.0053 7.48832 22.2662 7.71398 22.3627C7.82596 22.4109 10.128 23.3792 13.3334 23.3792C13.8807 23.3792 14.4553 23.351 15.0491 23.2848C16.6649 23.1053 17.622 22.5549 17.8946 21.6489C18.3768 20.0447 16.4662 18.1532 15.2847 17.1684Z" fill="#292724" stroke="#292724" stroke-width="0.5"/>
</g>
<defs>
<clipPath id="clip0_430_12667">
<rect width="24" height="24" fill="white"/>
</clipPath>
</defs>
</svg>
