<svg width="25" height="25" viewBox="0 0 25 25" fill="none" xmlns="http://www.w3.org/2000/svg">
<path d="M19.6979 15.3049C19.6979 16.6486 20.8021 17.7424 22.1459 17.7424C22.1459 21.6486 21.1667 22.6278 17.2604 22.6278H7.4896C3.58335 22.6278 2.60419 21.6486 2.60419 17.7424V17.2632C3.94794 17.2632 5.0521 16.159 5.0521 14.8153C5.0521 13.4715 3.94794 12.3674 2.60419 12.3674V11.8882C2.6146 7.98191 3.58335 7.00275 7.4896 7.00275H17.25C21.1563 7.00275 22.1354 7.98191 22.1354 11.8882V12.8674C20.7917 12.8674 19.6979 13.9507 19.6979 15.3049Z" stroke="#292724" stroke-width="1.8" stroke-linecap="round" stroke-linejoin="round"/>
<path opacity="0.4" d="M16.8865 7.00258H7.41779L10.4699 3.9505C12.9595 1.46092 14.2095 1.46092 16.699 3.9505L17.324 4.5755C16.6678 5.23175 16.5115 6.2005 16.8865 7.00258Z" stroke="#292724" stroke-width="1.8" stroke-linecap="round" stroke-linejoin="round"/>
<path opacity="0.4" d="M10.2905 7.00275V22.6278" stroke="#292724" stroke-width="1.8" stroke-linecap="round" stroke-linejoin="round" stroke-dasharray="12.5 12.5"/>
</svg>
