<svg width="30" height="30" viewBox="0 0 30 30" fill="none" xmlns="http://www.w3.org/2000/svg">
<path d="M21.875 23.7565V6.24353C21.875 5.44484 20.9849 4.96844 20.3203 5.41148L18.7334 6.4694C18.3711 6.71096 17.8941 6.69026 17.554 6.41823L15.6247 4.87476C15.2595 4.58259 14.7405 4.5826 14.3753 4.87478L12.446 6.41823C12.1059 6.69026 11.6289 6.71096 11.2666 6.4694L9.6797 5.41148C9.01515 4.96844 8.125 5.44484 8.125 6.24353V23.7565C8.125 24.5551 9.01515 25.0316 9.6797 24.5885L11.2666 23.5306C11.6289 23.289 12.1059 23.3098 12.446 23.5818L14.3753 25.1253C14.7405 25.4174 15.2595 25.4174 15.6247 25.1253L17.554 23.5818C17.8941 23.3098 18.3711 23.289 18.7334 23.5306L20.3203 24.5885C20.9849 25.0316 21.875 24.5551 21.875 23.7565Z" stroke="#292724" stroke-width="1.5"/>
<path d="M11.875 11.875H18.125" stroke="#292724" stroke-width="1.5" stroke-linecap="round"/>
<path d="M11.875 15H18.125" stroke="#292724" stroke-width="1.5" stroke-linecap="round"/>
<path d="M11.875 18.125H18.125" stroke="#292724" stroke-width="1.5" stroke-linecap="round"/>
</svg>
