<svg width="23" height="23" viewBox="0 0 23 23" fill="none" xmlns="http://www.w3.org/2000/svg">
<path d="M11.5 9.58335C13.6171 9.58335 15.3334 7.86711 15.3334 5.75002C15.3334 3.63293 13.6171 1.91669 11.5 1.91669C9.38293 1.91669 7.66669 3.63293 7.66669 5.75002C7.66669 7.86711 9.38293 9.58335 11.5 9.58335Z" stroke="#292724" stroke-width="1.5"/>
<path d="M17.25 8.62498C18.8379 8.62498 20.125 7.55233 20.125 6.22915C20.125 4.90597 18.8379 3.83331 17.25 3.83331" stroke="#292724" stroke-width="1.5" stroke-linecap="round"/>
<path d="M5.75 8.62498C4.16219 8.62498 2.875 7.55233 2.875 6.22915C2.875 4.90597 4.16219 3.83331 5.75 3.83331" stroke="#292724" stroke-width="1.5" stroke-linecap="round"/>
<path d="M11.5 20.125C14.6756 20.125 17.25 18.4087 17.25 16.2916C17.25 14.1746 14.6756 12.4583 11.5 12.4583C8.32436 12.4583 5.75 14.1746 5.75 16.2916C5.75 18.4087 8.32436 20.125 11.5 20.125Z" stroke="#292724" stroke-width="1.5"/>
<path d="M19.1667 18.2084C20.8478 17.8397 22.0417 16.9061 22.0417 15.8125C22.0417 14.719 20.8478 13.7854 19.1667 13.4167" stroke="#292724" stroke-width="1.5" stroke-linecap="round"/>
<path d="M3.83331 18.2084C2.15216 17.8397 0.958313 16.9061 0.958313 15.8125C0.958313 14.719 2.15216 13.7854 3.83331 13.4167" stroke="#292724" stroke-width="1.5" stroke-linecap="round"/>
</svg>
