<?xml version="1.0" encoding="UTF-8"?>
<svg version="1.1" xmlns="http://www.w3.org/2000/svg" width="218" height="204">
<path d="M0 0 C71.94 0 143.88 0 218 0 C218 67.32 218 134.64 218 204 C146.06 204 74.12 204 0 204 C0 136.68 0 69.36 0 0 Z " fill="#FEFEFE" transform="translate(0,0)"/>
<path d="M0 0 C8.82719607 3.21824857 19.32904778 2.52370797 27.94140625 -0.87890625 C37.05534118 -3.62865132 46.7449585 1.81010487 54.6328125 5.84765625 C64.47935417 11.38826512 72.40904424 18.6585069 78 28.5 C78.37769531 29.15742188 78.75539062 29.81484375 79.14453125 30.4921875 C84.1705144 39.86649315 85 47.55324817 85 58.5 C37.81 58.5 -9.38 58.5 -58 58.5 C-58 40.38862726 -52.94062322 26.9395168 -40.359375 13.74609375 C-34.19454163 7.87725403 -27.75749589 4.1312092 -19.875 1.0625 C-19.21814209 0.80307617 -18.56128418 0.54365234 -17.88452148 0.27636719 C-11.94732688 -1.8799163 -5.932992 -2.76191007 0 0 Z " fill="#2E4355" transform="translate(96,117.5)"/>
<path d="M0 0 C6.9359549 5.25281324 14.21578996 11.27320798 16.125 20.125 C16.90671526 23.88598532 16.90671526 23.88598532 18 27 C18.41574852 33.61330197 18.36150319 39.74201653 16 46 C15.74347656 46.70640625 15.48695313 47.4128125 15.22265625 48.140625 C11.28737229 58.07172786 4.63117951 64.48670274 -5 69 C-11.61186826 71.47129068 -17.95960313 72.68255194 -25 72 C-25.72832031 71.93039063 -26.45664063 71.86078125 -27.20703125 71.7890625 C-37.85596968 70.11059585 -45.67024643 62.24475984 -52 54 C-58.26446093 44.92107111 -58.20338352 33.67495831 -57 23 C-53.86500889 11.97966865 -45.98851828 4.01470628 -36.1875 -1.5 C-24.78978576 -7.42089052 -10.90268665 -6.78873955 0 0 Z " fill="#2E4356" transform="translate(129,42)"/>
</svg>
