<svg width="26" height="27" viewBox="0 0 26 27" fill="none" xmlns="http://www.w3.org/2000/svg">
<path d="M10.8334 2.57796C8.14717 2.61682 6.62426 2.81607 5.60257 3.83774C4.33337 5.10694 4.33337 7.1497 4.33337 11.2352V13.4019C4.33337 17.4873 4.33337 19.5302 5.60257 20.7993C6.87179 22.0685 8.91453 22.0685 13 22.0685C17.0855 22.0685 19.1283 22.0685 20.3975 20.7993C21.6667 19.5302 21.6667 17.4873 21.6667 13.4019V11.2352C21.6667 7.1497 21.6667 5.10694 20.3975 3.83774C19.3758 2.81607 17.8529 2.61682 15.1667 2.57796" stroke="#292724" stroke-width="1.5" stroke-linecap="round"/>
<path d="M21.6667 14.4851H17.3334M4.33337 14.4851H13" stroke="#292724" stroke-width="1.5" stroke-linecap="round" stroke-linejoin="round"/>
<path d="M16.7916 17.7351H18.4166" stroke="#292724" stroke-width="1.5" stroke-linecap="round" stroke-linejoin="round"/>
<path d="M7.58337 17.7351H9.20837" stroke="#292724" stroke-width="1.5" stroke-linecap="round" stroke-linejoin="round"/>
<path d="M6.5 21.5268V23.1518C6.5 23.7501 6.98503 24.2351 7.58333 24.2351H9.20833C9.80664 24.2351 10.2917 23.7501 10.2917 23.1518V22.0684" stroke="#292724" stroke-width="1.5" stroke-linecap="round" stroke-linejoin="round"/>
<path d="M19.5 21.5268V23.1518C19.5 23.7501 19.015 24.2351 18.4167 24.2351H16.7917C16.1934 24.2351 15.7084 23.7501 15.7084 23.1518V22.0684" stroke="#292724" stroke-width="1.5" stroke-linecap="round" stroke-linejoin="round"/>
<path d="M21.6666 10.1518H22.75C23.3483 10.1518 23.8333 10.6368 23.8333 11.2351V12.3184C23.8333 12.6595 23.6727 12.9805 23.4 13.1851L21.6666 14.4851" stroke="#292724" stroke-width="1.5" stroke-linecap="round" stroke-linejoin="round"/>
<path d="M4.33329 10.1518H3.24996C2.65166 10.1518 2.16663 10.6368 2.16663 11.2351V12.3184C2.16663 12.6595 2.32717 12.9805 2.59996 13.1851L4.33329 14.4851" stroke="#292724" stroke-width="1.5" stroke-linecap="round" stroke-linejoin="round"/>
<path d="M4.875 5.81844H8.9375M21.125 5.81844H13" stroke="#292724" stroke-width="1.5" stroke-linecap="round"/>
</svg>
