<svg width="27" height="27" viewBox="0 0 27 27" fill="none" xmlns="http://www.w3.org/2000/svg">
<path d="M2.6192 6.16675L10.1251 10.4196C12.8922 11.9875 14.0614 11.9875 16.8286 10.4196L24.3344 6.16675" stroke="#292724" stroke-width="2.17152" stroke-linejoin="round"/>
<path d="M2.63632 14.2835C2.7073 17.612 2.74279 19.2762 3.97093 20.5091C5.19906 21.7418 6.90832 21.7847 10.3268 21.8706C12.4337 21.9236 14.5199 21.9236 16.6268 21.8706C20.0454 21.7847 21.7546 21.7418 22.9828 20.5091C24.2109 19.2762 24.2464 17.612 24.3173 14.2835C24.3402 13.2133 24.3402 12.1495 24.3173 11.0792C24.2464 7.75077 24.2109 6.08655 22.9828 4.85374C21.7546 3.62094 20.0454 3.57799 16.6268 3.4921C14.5199 3.43916 12.4337 3.43916 10.3268 3.49209C6.90832 3.57797 5.19906 3.62091 3.97092 4.85373C2.74278 6.08654 2.7073 7.75076 2.63631 11.0792C2.61349 12.1495 2.6135 13.2133 2.63632 14.2835Z" stroke="#292724" stroke-width="2.17152" stroke-linejoin="round"/>
</svg>
