<svg width="27" height="27" viewBox="0 0 27 27" fill="none" xmlns="http://www.w3.org/2000/svg">
<path d="M16.6814 16.9737H16.6912M11.2624 16.9737H11.2721" stroke="#292724" stroke-width="2.89536" stroke-linecap="round" stroke-linejoin="round"/>
<path d="M5.58149 20.6053C5.82565 22.4188 7.32774 23.8395 9.15565 23.9236C10.6938 23.9942 12.2562 24.0312 13.9768 24.0312C15.6974 24.0312 17.2598 23.9942 18.7979 23.9236C20.6259 23.8395 22.1279 22.4188 22.3721 20.6053C22.5315 19.4218 22.6629 18.2089 22.6629 16.9737C22.6629 15.7385 22.5315 14.5256 22.3721 13.3422C22.1279 11.5286 20.6259 10.1079 18.7979 10.0238C17.2598 9.95314 15.6974 9.91626 13.9768 9.91626C12.2562 9.91626 10.6938 9.95314 9.15565 10.0238C7.32774 10.1079 5.82565 11.5286 5.58149 13.3422C5.42214 14.5256 5.29071 15.7385 5.29071 16.9737C5.29071 18.2089 5.42214 19.4218 5.58149 20.6053Z" stroke="#292724" stroke-width="2.17152"/>
<path d="M9.09088 9.91625V7.20185C9.09088 4.50342 11.2784 2.31592 13.9768 2.31592C16.6753 2.31592 18.8627 4.50342 18.8627 7.20185V9.91625" stroke="#292724" stroke-width="2.17152" stroke-linecap="round" stroke-linejoin="round"/>
</svg>
