<svg width="28" height="28" viewBox="0 0 28 28" fill="none" xmlns="http://www.w3.org/2000/svg">
<path fill-rule="evenodd" clip-rule="evenodd" d="M14 9.625C11.5838 9.625 9.625 11.5838 9.625 14C9.625 16.4163 11.5838 18.375 14 18.375C16.4163 18.375 18.375 16.4163 18.375 14C18.375 11.5838 16.4163 9.625 14 9.625ZM11.375 14C11.375 12.5503 12.5503 11.375 14 11.375C15.4497 11.375 16.625 12.5503 16.625 14C16.625 15.4497 15.4497 16.625 14 16.625C12.5503 16.625 11.375 15.4497 11.375 14Z" fill="#292724"/>
<path fill-rule="evenodd" clip-rule="evenodd" d="M14 3.79169C8.73351 3.79169 5.18617 6.94659 3.12733 9.62136L3.09019 9.66959C2.62458 10.2743 2.19573 10.8313 1.9048 11.4898C1.59324 12.1951 1.45833 12.9637 1.45833 14C1.45833 15.0364 1.59324 15.805 1.9048 16.5102C2.19573 17.1688 2.62458 17.7258 3.0902 18.3305L3.12733 18.3786C5.18617 21.0535 8.73351 24.2084 14 24.2084C19.2664 24.2084 22.8138 21.0535 24.8726 18.3786L24.9097 18.3305C25.3755 17.7258 25.8042 17.1688 26.0952 16.5102C26.4068 15.805 26.5417 15.0364 26.5417 14C26.5417 12.9637 26.4068 12.1951 26.0952 11.4898C25.8042 10.8312 25.3755 10.2743 24.9097 9.66956L24.8726 9.62136C22.8138 6.94659 19.2664 3.79169 14 3.79169ZM4.51409 10.6888C6.41508 8.21909 9.50875 5.54169 14 5.54169C18.4912 5.54169 21.585 8.21909 23.4859 10.6888C23.9976 11.3535 24.2973 11.7508 24.4944 12.1969C24.6787 12.614 24.7917 13.1237 24.7917 14C24.7917 14.8763 24.6787 15.386 24.4944 15.8031C24.2973 16.2492 23.9976 16.6465 23.4859 17.3113C21.585 19.781 18.4912 22.4584 14 22.4584C9.50875 22.4584 6.41508 19.781 4.51409 17.3113C4.00241 16.6465 3.70269 16.2492 3.50555 15.8031C3.32131 15.386 3.20833 14.8763 3.20833 14C3.20833 13.1237 3.32131 12.614 3.50555 12.1969C3.70269 11.7508 4.0024 11.3535 4.51409 10.6888Z" fill="#292724" stroke="#292724" stroke-width="0.5"/>
</svg>
