<svg width="26" height="27" viewBox="0 0 26 27" fill="none" xmlns="http://www.w3.org/2000/svg">
<g clip-path="url(#clip0_260_16561)">
<path d="M6.51517 9.38547C6.63896 8.40643 7.91134 7.07581 8.92112 7.22346L8.91951 7.22184C9.90222 7.40859 10.6801 9.09999 11.1188 9.86053C11.4296 10.4123 11.2278 10.9714 10.9379 11.2074C10.5468 11.5226 9.93524 11.9575 10.0636 12.3942C10.2917 13.1705 13 15.8788 14.3321 16.6488C14.8363 16.9402 15.2019 16.1715 15.5141 15.7778C15.7409 15.4749 16.3005 15.2938 16.851 15.5928C17.6733 16.0717 18.4479 16.6282 19.1642 17.2547C19.5219 17.5537 19.6058 17.9956 19.358 18.4626C18.9214 19.2852 17.6587 20.3699 16.7421 20.1494C15.1411 19.7645 8.66667 17.2547 6.58703 9.98334C6.47007 9.63935 6.49951 9.5093 6.51517 9.38547Z" fill="#292724"/>
<path fill-rule="evenodd" clip-rule="evenodd" d="M13 25.6288C11.6745 25.6288 10.9411 25.4866 9.75004 25.0871L7.46901 26.2277C6.02838 26.948 4.33337 25.9004 4.33337 24.2897V21.8371C2.00047 19.6618 1.08337 17.1536 1.08337 13.7121C1.08337 7.13075 6.41865 1.79547 13 1.79547C19.5814 1.79547 24.9167 7.13075 24.9167 13.7121C24.9167 20.2935 19.5814 25.6288 13 25.6288ZM6.50004 20.895L5.81099 20.2524C3.99848 18.5624 3.25004 16.673 3.25004 13.7121C3.25004 8.32736 7.61527 3.96214 13 3.96214C18.3849 3.96214 22.75 8.32736 22.75 13.7121C22.75 19.097 18.3849 23.4621 13 23.4621C11.9322 23.4621 11.4314 23.3657 10.439 23.0329L9.58588 22.7468L6.50004 24.2897V20.895Z" fill="#292724"/>
</g>
<defs>
<clipPath id="clip0_260_16561">
<rect width="26" height="26" fill="white" transform="translate(0 0.712158)"/>
</clipPath>
</defs>
</svg>
