<svg width="112" height="106" viewBox="0 0 112 106" fill="none" xmlns="http://www.w3.org/2000/svg">
<path opacity="0.3" d="M99.2375 50.7559C99.2375 50.7559 106.646 69.2361 105.354 70.3751C104.061 71.5142 88.1252 62.5852 87.0072 63.5703C85.8893 64.5553 90.6103 83.3661 88.8984 84.8745C87.1865 86.3829 76.5271 78.3004 75.278 79.2775C74.0289 80.2547 74.225 97.8039 72.6528 99.1891C71.0806 100.574 55.9345 94.6546 55.9345 94.6546" stroke="url(#paint0_linear_392_10918)" stroke-width="2" stroke-linecap="round"/>
<path opacity="0.08" d="M4.75406 5.89894C4.75406 2.64105 7.3951 0 10.653 0H12.0152C16.0254 0 19.2763 3.25092 19.2763 7.26113V14.5223V14.5223C19.2763 11.805 16.5453 9.93677 14.0128 10.9216L12.0152 11.6985C8.52151 13.0571 4.75406 10.4799 4.75406 6.73139V5.89894Z" fill="#57707A"/>
<rect opacity="0.2" x="30.3816" y="17.085" width="53.8178" height="53.8178" rx="26.9089" fill="#FFC107"/>
<rect opacity="0.2" x="0.982819" y="55.1719" width="8.39676" height="8.39676" rx="4.19838" stroke="#57707A"/>
<rect opacity="0.2" x="84.6994" y="14.168" width="8.39676" height="8.39676" rx="4.19838" stroke="#57707A"/>
<path d="M45.7355 36.3258C49.8979 37.048 54.824 35.6496 58.3396 38.536C58.4584 38.6456 58.6963 38.6717 58.8749 38.662C61.7572 38.2537 65.0188 38.3602 65.2013 42.0036C65.3509 44.5495 65.311 47.1228 65.1966 49.6757C66.7465 49.9805 68.0179 51.0501 67.9659 52.7527C67.9507 54.6619 67.9598 56.5876 67.4174 58.4404C66.618 62.3058 61.3228 60.7419 61.468 57.5272C61.6143 54.3807 62.0205 51.2398 62.1879 48.0922C62.2327 46.0508 62.4994 43.9626 62.0706 41.9475C62.0365 41.7895 61.8038 41.5709 61.6494 41.5599C61.0255 41.5157 60.3967 41.5415 59.7344 41.5415C60.2534 49.6313 60.4726 57.7075 60.5575 65.809C60.3879 69.4398 60.431 74.5649 56.1992 75.7552C56.6312 77.8352 55.9328 79.9941 53.4766 79.7559C51.5172 79.6524 49.8973 78.8276 50.1589 76.4413C46.1129 76.6399 42.071 76.8383 37.9623 77.0401C38.2211 78.8037 36.6149 80.0452 34.8991 79.7453C33.8612 79.5981 32.8973 77.8943 33.2208 76.3638C30.7904 75.411 29.4742 73.5228 29.3936 70.9848C29.1075 61.3556 28.4225 51.6263 29.7114 42.048C26.7608 42.0239 27.0431 45.8578 27.0365 47.9498C27.1792 51.0293 27.4135 54.1091 27.4395 57.1921C27.7533 60.5099 22.348 61.5914 21.5964 58.2512C21.0341 56.2641 21.0215 54.2147 21.0939 52.1812C21.2824 49.1427 24.2395 49.8052 23.9382 48.4226C23.4816 44.1242 24.6911 38.2861 30.2534 39.3076C31.5224 39.3687 31.6589 36.3754 35.7817 36.417C39.1043 36.495 42.416 36.3133 45.7355 36.3258ZM57.4066 56.2513C57.283 51.5243 56.9609 46.8063 56.7626 42.0797C56.7212 41.2377 56.3687 40.5656 55.5349 40.2769C52.7773 39.2246 35.8905 38.6311 34.115 40.7529C32.0324 42.6855 32.593 45.8126 32.257 48.3749C32.1359 50.7157 32.078 53.0599 31.9818 55.4021C31.9699 55.6912 32.0829 55.8277 32.3451 55.9002C40.4635 58.2899 49.1969 58.1811 57.4066 56.2513ZM57.5462 59.7607C49.0143 61.8529 40.5603 61.5092 32.1097 59.5749C32.1342 63.3421 32.307 67.1347 32.4361 70.9075C32.5012 72.4471 33.3191 73.2888 34.8401 73.6153C39.8973 74.4224 45.0367 73.5089 50.1183 73.3619C51.6843 73.2671 53.2515 73.1731 54.8124 73.0193C55.779 72.9241 56.5586 72.4285 56.8176 71.4515C57.9155 67.6671 57.6571 63.6541 57.5462 59.7607Z" fill="#292724"/>
<path d="M73.597 76.3917C71.1244 75.7629 68.685 74.8008 66.2501 74.0092C64.1084 73.0581 65.4244 70.1038 68.1096 71.264C70.278 71.9976 72.5901 72.4281 74.6675 73.3842C76.0871 74.3214 75.3231 76.4707 73.597 76.3917Z" fill="#292724"/>
<path d="M16.0705 75.3196C14.5287 75.3956 13.8144 73.5546 14.971 72.6567C16.6148 71.7549 18.59 71.5859 20.3571 70.9717C21.335 70.7052 22.298 70.083 23.3371 70.1717C24.4455 70.2974 24.7204 72.0451 23.7422 72.5509C23.2068 72.8741 22.628 73.1456 22.0379 73.3546C20.0707 74.0033 18.0675 74.8105 16.0705 75.3196Z" fill="#292724"/>
<path d="M65.1156 67.7545C63.191 67.7499 63.0819 65.7451 64.4089 64.9612C65.9615 63.9673 67.4178 62.7581 69.0763 61.9556C71.1219 61.3497 71.9595 64.0252 70.1214 64.9323C68.5105 65.8382 66.8095 67.0917 65.1156 67.7545Z" fill="#292724"/>
<path d="M23.5121 66.8769C22.691 66.6134 21.5438 66.3066 20.4481 65.8704C18.9822 65.2671 19.8551 62.8975 21.3613 63.3475C22.4569 63.6831 23.5319 64.1055 24.5785 64.5742C25.1431 64.827 25.3292 65.4521 25.1691 66.0013C25.002 66.5744 24.5154 66.8987 23.5121 66.8769Z" fill="#292724"/>
<path d="M57.4067 56.2513C49.1978 58.1814 40.4629 58.2899 32.3451 55.9002C32.083 55.8275 31.97 55.6911 31.9818 55.402C32.0781 53.0598 32.1359 50.7156 32.2573 48.3749C32.5912 45.8121 32.0341 42.6859 34.1149 40.753C35.8665 38.6362 52.7386 39.2194 55.535 40.2766C56.3688 40.5656 56.7214 41.2377 56.7627 42.0797C56.961 46.8063 57.2829 51.5242 57.4067 56.2513Z" fill="white"/>
<path d="M57.5466 59.761C57.6579 63.6544 57.9154 67.6674 56.8181 71.4517C56.5589 72.4288 55.7793 72.9244 54.8127 73.0196C53.2519 73.1734 51.6847 73.2674 50.1186 73.362C45.037 73.5093 39.8978 74.4226 34.8405 73.6159C33.3195 73.2892 32.5015 72.4474 32.4365 70.9078C32.3072 67.1352 32.1344 63.3424 32.11 59.5752C40.5606 61.5095 49.0147 61.8532 57.5466 59.761ZM37.6965 67.0999C37.6964 67.0936 37.6963 67.0873 37.6963 67.081C36.4007 67.0444 34.5642 66.8446 34.3649 68.556C34.3269 71.3119 37.7098 70.0404 39.3891 70.0256C41.3499 69.9667 41.463 67.2953 39.5296 67.1099C38.9227 67.0583 38.3078 67.0999 37.6965 67.0999ZM51.4472 66.6233C48.862 66.4747 49.1591 70.2308 51.7299 69.8494C52.6184 69.738 53.5109 69.6446 54.4045 69.5914C56.4411 69.593 56.6575 66.7935 54.6176 66.64C53.5655 66.5671 52.5044 66.6233 51.4472 66.6233Z" fill="white"/>
<path d="M37.6961 67.0995C38.3075 67.0995 38.9224 67.0579 39.5293 67.1096C41.4612 67.295 41.351 69.9663 39.3886 70.0252C37.7115 70.0405 34.3247 71.3106 34.3645 68.5556C34.5656 66.8435 36.3989 67.0442 37.696 67.0806C37.696 67.087 37.6961 67.0932 37.6961 67.0995Z" fill="#292724"/>
<path d="M51.4467 66.6232C52.9533 66.7559 56.0784 65.9054 56.0487 68.2085C55.8373 70.1302 53.1179 69.4917 51.7296 69.8495C49.1594 70.2309 48.8609 66.4749 51.4467 66.6232Z" fill="#292724"/>
<defs>
<linearGradient id="paint0_linear_392_10918" x1="59.2884" y1="98.4609" x2="105.44" y2="57.795" gradientUnits="userSpaceOnUse">
<stop stop-color="#EDEDED"/>
<stop offset="1" stop-color="#FFC107"/>
</linearGradient>
</defs>
</svg>
