<svg width="46" height="46" viewBox="0 0 46 46" fill="none" xmlns="http://www.w3.org/2000/svg">
<circle cx="23" cy="23" r="23" fill="#EDEDED"/>
<path fill-rule="evenodd" clip-rule="evenodd" d="M26 14C26 14 26.0163 14.0261 26.049 14.0784L26.064 14.1024C26.0987 14.1579 26.1474 14.2359 26.2102 14.3364L26.2403 14.3844C26.3074 14.4919 26.3887 14.6219 26.484 14.7744L26.529 14.8464C26.6287 15.0059 26.7424 15.1879 26.8703 15.3924L26.9303 15.4884C27.0624 15.6999 27.2087 15.9339 27.369 16.1904L27.444 16.3104C27.5783 16.5253 27.7219 16.7551 27.875 16.9999L33 17V31H13V17H18.125L20 14H26ZM23 18C19.9624 18 17.5 20.4624 17.5 23.5C17.5 26.5376 19.9624 29 23 29C26.0376 29 28.5 26.5376 28.5 23.5C28.5 20.4624 26.0376 18 23 18ZM23 20C24.933 20 26.5 21.567 26.5 23.5C26.5 25.433 24.933 27 23 27C21.067 27 19.5 25.433 19.5 23.5C19.5 21.567 21.067 20 23 20ZM31 19C30.4477 19 30 19.4477 30 20C30 20.5523 30.4477 21 31 21C31.5523 21 32 20.5523 32 20C32 19.4477 31.5523 19 31 19Z" fill="#57707A"/>
</svg>
