<svg width="18" height="18" viewBox="0 0 18 18" fill="none" xmlns="http://www.w3.org/2000/svg">
<path d="M14.2084 6.89062L11.2084 3.89062M14.2084 6.89062L10.4595 10.6394C9.96547 11.1334 9.36585 11.5234 8.67742 11.6422C7.98232 11.7621 7.1197 11.802 6.70833 11.3906C6.29696 10.9792 6.33686 10.1166 6.45675 9.4215C6.57548 8.73308 6.96551 8.13345 7.4595 7.63942L11.2084 3.89062M14.2084 6.89062C14.2084 6.89062 16.4583 4.64062 14.9583 3.14062C13.4583 1.64062 11.2084 3.89062 11.2084 3.89062M15.375 9C15.375 13.875 13.875 15.375 9 15.375C4.125 15.375 2.625 13.875 2.625 9C2.625 4.125 4.125 2.625 9 2.625" stroke="#57707A" stroke-linecap="round" stroke-linejoin="round"/>
</svg>
