<svg width="954" height="318" viewBox="0 0 954 318" fill="none" xmlns="http://www.w3.org/2000/svg">
<line x1="39.1971" y1="8" x2="39.1972" y2="291" stroke="#ECECEE"/>
<line x1="954" y1="291.5" x2="38.6972" y2="291.5" stroke="#ECECEE"/>
<path d="M132.986 224.464C99.3985 233.329 41.1293 212.798 41.1293 212.798V317H941.092V62.1453C903.314 52.6495 852.319 -19.535 829.468 8.37722C759.704 93.5946 676.603 0.615775 599.245 27.6526C520.319 55.2378 501.652 104.355 416.695 107.29C377.357 108.649 383.335 198.762 344.024 200.624C303.884 202.524 266.917 125.792 228.912 137.218C188.284 149.432 174.118 213.608 132.986 224.464Z" fill="url(#paint0_linear_392_11212)"/>
<path d="M41.1293 206.525C41.1293 206.525 99.3899 226.446 132.972 217.845C174.098 207.311 188.262 145.046 228.884 133.194C266.884 122.108 303.846 196.557 343.979 194.714C383.284 192.908 377.307 105.476 416.64 104.157C501.584 101.309 520.249 53.6537 599.163 26.8893C676.509 0.656963 759.598 90.8692 829.352 8.18747C852.2 -18.8942 903.187 51.1424 940.959 60.3557" stroke="#FFC107" stroke-width="4" stroke-linecap="round" stroke-linejoin="round"/>
<line x1="888.352" y1="285" x2="888.352" y2="297" stroke="#ECECEE" stroke-width="2" stroke-linecap="round" stroke-linejoin="round"/>
<line x1="726.174" y1="285" x2="726.174" y2="297" stroke="#ECECEE" stroke-width="2" stroke-linecap="round" stroke-linejoin="round"/>
<line x1="563.997" y1="285" x2="563.997" y2="297" stroke="#ECECEE" stroke-width="2" stroke-linecap="round" stroke-linejoin="round"/>
<line x1="401.819" y1="285" x2="401.819" y2="297" stroke="#ECECEE" stroke-width="2" stroke-linecap="round" stroke-linejoin="round"/>
<line x1="239.642" y1="285" x2="239.642" y2="297" stroke="#ECECEE" stroke-width="2" stroke-linecap="round" stroke-linejoin="round"/>
<line x1="77.4645" y1="285" x2="77.4645" y2="297" stroke="#ECECEE" stroke-width="2" stroke-linecap="round" stroke-linejoin="round"/>
<line x1="36.3647" y1="258" x2="45.4728" y2="258" stroke="#ECECEE" stroke-width="2" stroke-linecap="round" stroke-linejoin="round"/>
<line x1="36.3647" y1="203" x2="45.4728" y2="203" stroke="#ECECEE" stroke-width="2" stroke-linecap="round" stroke-linejoin="round"/>
<line x1="36.3647" y1="148" x2="45.4728" y2="148" stroke="#ECECEE" stroke-width="2" stroke-linecap="round" stroke-linejoin="round"/>
<line x1="36.3647" y1="93" x2="45.4728" y2="93" stroke="#ECECEE" stroke-width="2" stroke-linecap="round" stroke-linejoin="round"/>
<line x1="36.3647" y1="37" x2="45.4728" y2="37" stroke="#ECECEE" stroke-width="2" stroke-linecap="round" stroke-linejoin="round"/>
<path d="M69.9807 314.952L70.0887 314.088C70.0887 314.088 70.4847 314.196 70.8807 314.196C71.5407 314.196 71.9367 313.824 71.9367 312.972V306.6H72.9087V313.104C72.9087 314.4 72.1767 315.072 70.9887 315.072C70.4847 315.072 70.0887 314.988 69.9807 314.952ZM74.2614 313.08C74.2614 311.892 75.2574 311.028 76.6614 311.028C77.4534 311.028 78.0534 311.328 78.3054 311.592V310.824C78.3054 309.948 77.7174 309.444 76.7934 309.444C76.0254 309.444 75.4014 309.72 74.9574 309.984L74.5734 309.288C74.9934 309.024 75.8214 308.604 76.8774 308.604C78.5814 308.604 79.2534 309.552 79.2534 310.884V315H78.4374L78.3294 314.472C78.0054 314.844 77.4774 315.156 76.6374 315.156C75.2694 315.156 74.2614 314.292 74.2614 313.08ZM75.2214 313.068C75.2214 313.788 75.8334 314.364 76.7934 314.364C77.7054 314.364 78.3414 313.824 78.3414 313.068C78.3414 312.288 77.7174 311.784 76.7814 311.784C75.8334 311.784 75.2214 312.336 75.2214 313.068ZM83.5826 308.604C85.0346 308.604 85.7786 309.684 85.7786 311.1V315H84.8306V311.064C84.8306 310.068 84.2066 309.468 83.3546 309.468C82.3946 309.468 81.7346 310.176 81.7346 311.208V315H80.7866V308.76H81.7226V309.66C82.0226 309.096 82.7186 308.604 83.5826 308.604Z" fill="#57707A"/>
<path d="M4.42063 259.308L5.24863 258.948C5.47663 259.596 5.98063 260.256 7.08463 260.256C7.97263 260.256 8.60863 259.74 8.60863 258.864C8.60863 256.764 4.67263 257.304 4.67263 254.592C4.67263 253.5 5.42863 252.612 6.70063 252.48V251.808H7.43263V252.468C8.68063 252.624 9.25663 253.536 9.44863 254.052L8.63263 254.388C8.44063 253.968 7.98463 253.332 7.06063 253.332C6.13663 253.332 5.64463 253.896 5.64463 254.592C5.64463 256.512 9.59263 256.116 9.59263 258.804C9.59263 260.016 8.77663 260.988 7.43263 261.132V262.032H6.70063V261.132C5.30863 261 4.66063 260.064 4.42063 259.308ZM10.8629 253.98L10.5629 253.176L12.0149 252.6H12.8069V261H11.8349V253.584L10.8629 253.98ZM19.8455 256.8C19.8455 259.56 19.2335 261.156 17.1335 261.156C15.0335 261.156 14.4215 259.56 14.4215 256.8C14.4215 254.04 15.0335 252.444 17.1335 252.444C19.2335 252.444 19.8455 254.04 19.8455 256.8ZM15.4055 256.8C15.4055 258.78 15.5495 260.244 17.1335 260.244C18.7175 260.244 18.8495 258.768 18.8495 256.8C18.8495 254.832 18.7175 253.356 17.1335 253.356C15.5495 253.356 15.4055 254.844 15.4055 256.8ZM26.49 256.8C26.49 259.56 25.878 261.156 23.778 261.156C21.678 261.156 21.066 259.56 21.066 256.8C21.066 254.04 21.678 252.444 23.778 252.444C25.878 252.444 26.49 254.04 26.49 256.8ZM22.05 256.8C22.05 258.78 22.194 260.244 23.778 260.244C25.362 260.244 25.494 258.768 25.494 256.8C25.494 254.832 25.362 253.356 23.778 253.356C22.194 253.356 22.05 254.844 22.05 256.8Z" fill="#57707A"/>
<path d="M0.408 149.308L1.236 148.948C1.464 149.596 1.968 150.256 3.072 150.256C3.96 150.256 4.596 149.74 4.596 148.864C4.596 146.764 0.66 147.304 0.66 144.592C0.66 143.5 1.416 142.612 2.688 142.48V141.808H3.42V142.468C4.668 142.624 5.244 143.536 5.436 144.052L4.62 144.388C4.428 143.968 3.972 143.332 3.048 143.332C2.124 143.332 1.632 143.896 1.632 144.592C1.632 146.512 5.58 146.116 5.58 148.804C5.58 150.016 4.764 150.988 3.42 151.132V152.032H2.688V151.132C1.296 151 0.648 150.064 0.408 149.308ZM11.5183 142.6V143.512L9.32231 146.08C10.4023 146.08 11.8183 146.788 11.8183 148.552C11.8183 150.04 10.6663 151.144 9.15431 151.144C7.48631 151.144 6.77831 150.148 6.53831 149.32L7.36631 149.02C7.58231 149.692 8.09831 150.256 9.14231 150.256C10.1023 150.256 10.8223 149.56 10.8223 148.576C10.8223 147.616 10.1383 146.932 8.85431 146.932H8.20631V146.152L10.4263 143.476H6.81431V142.6H11.5183ZM18.411 146.8C18.411 149.56 17.799 151.156 15.699 151.156C13.599 151.156 12.987 149.56 12.987 146.8C12.987 144.04 13.599 142.444 15.699 142.444C17.799 142.444 18.411 144.04 18.411 146.8ZM13.971 146.8C13.971 148.78 14.115 150.244 15.699 150.244C17.283 150.244 17.415 148.768 17.415 146.8C17.415 144.832 17.283 143.356 15.699 143.356C14.115 143.356 13.971 144.844 13.971 146.8ZM25.0555 146.8C25.0555 149.56 24.4435 151.156 22.3435 151.156C20.2435 151.156 19.6315 149.56 19.6315 146.8C19.6315 144.04 20.2435 142.444 22.3435 142.444C24.4435 142.444 25.0555 144.04 25.0555 146.8ZM20.6155 146.8C20.6155 148.78 20.7595 150.244 22.3435 150.244C23.9275 150.244 24.0595 148.768 24.0595 146.8C24.0595 144.832 23.9275 143.356 22.3435 143.356C20.7595 143.356 20.6155 144.844 20.6155 146.8Z" fill="#57707A"/>
<path d="M0.408 39.308L1.236 38.948C1.464 39.596 1.968 40.256 3.072 40.256C3.96 40.256 4.596 39.74 4.596 38.864C4.596 36.764 0.66 37.304 0.66 34.592C0.66 33.5 1.416 32.612 2.688 32.48V31.808H3.42V32.468C4.668 32.624 5.244 33.536 5.436 34.052L4.62 34.388C4.428 33.968 3.972 33.332 3.048 33.332C2.124 33.332 1.632 33.896 1.632 34.592C1.632 36.512 5.58 36.116 5.58 38.804C5.58 40.016 4.764 40.988 3.42 41.132V42.032H2.688V41.132C1.296 41 0.648 40.064 0.408 39.308ZM9.15431 40.256C10.2103 40.256 10.8343 39.428 10.8343 38.384C10.8343 37.352 10.1863 36.512 9.07031 36.512C8.39831 36.512 8.00231 36.788 7.67831 37.064L6.86231 36.92L7.04231 32.6H11.3263V33.488H7.91831L7.79831 36.08C8.17031 35.828 8.63831 35.672 9.20231 35.672C10.7503 35.672 11.8183 36.776 11.8183 38.336C11.8183 39.932 10.7743 41.156 9.19031 41.156C7.57031 41.156 6.79031 40.148 6.53831 39.32L7.37831 39.02C7.58231 39.704 8.12231 40.256 9.15431 40.256ZM18.3876 36.8C18.3876 39.56 17.7756 41.156 15.6756 41.156C13.5756 41.156 12.9636 39.56 12.9636 36.8C12.9636 34.04 13.5756 32.444 15.6756 32.444C17.7756 32.444 18.3876 34.04 18.3876 36.8ZM13.9476 36.8C13.9476 38.78 14.0916 40.244 15.6756 40.244C17.2596 40.244 17.3916 38.768 17.3916 36.8C17.3916 34.832 17.2596 33.356 15.6756 33.356C14.0916 33.356 13.9476 34.844 13.9476 36.8ZM25.0321 36.8C25.0321 39.56 24.4201 41.156 22.3201 41.156C20.2201 41.156 19.6081 39.56 19.6081 36.8C19.6081 34.04 20.2201 32.444 22.3201 32.444C24.4201 32.444 25.0321 34.04 25.0321 36.8ZM20.5921 36.8C20.5921 38.78 20.7361 40.244 22.3201 40.244C23.9041 40.244 24.0361 38.768 24.0361 36.8C24.0361 34.832 23.9041 33.356 22.3201 33.356C20.7361 33.356 20.5921 34.844 20.5921 36.8Z" fill="#57707A"/>
<path d="M0.408 204.308L1.236 203.948C1.464 204.596 1.968 205.256 3.072 205.256C3.96 205.256 4.596 204.74 4.596 203.864C4.596 201.764 0.66 202.304 0.66 199.592C0.66 198.5 1.416 197.612 2.688 197.48V196.808H3.42V197.468C4.668 197.624 5.244 198.536 5.436 199.052L4.62 199.388C4.428 198.968 3.972 198.332 3.048 198.332C2.124 198.332 1.632 198.896 1.632 199.592C1.632 201.512 5.58 201.116 5.58 203.804C5.58 205.016 4.764 205.988 3.42 206.132V207.032H2.688V206.132C1.296 206 0.648 205.064 0.408 204.308ZM6.59831 206V205.64C6.59831 203.3 10.5823 201.992 10.5823 199.844C10.5823 198.992 10.0303 198.356 9.05831 198.356C8.11031 198.356 7.66631 198.968 7.48631 199.652L6.63431 199.412C6.76631 198.716 7.41431 197.444 9.08231 197.444C10.6783 197.444 11.5783 198.476 11.5783 199.82C11.5783 202.316 7.82231 203.684 7.71431 205.136H11.6983V206H6.59831ZM18.2235 201.8C18.2235 204.56 17.6115 206.156 15.5115 206.156C13.4115 206.156 12.7995 204.56 12.7995 201.8C12.7995 199.04 13.4115 197.444 15.5115 197.444C17.6115 197.444 18.2235 199.04 18.2235 201.8ZM13.7835 201.8C13.7835 203.78 13.9275 205.244 15.5115 205.244C17.0955 205.244 17.2275 203.768 17.2275 201.8C17.2275 199.832 17.0955 198.356 15.5115 198.356C13.9275 198.356 13.7835 199.844 13.7835 201.8ZM24.868 201.8C24.868 204.56 24.256 206.156 22.156 206.156C20.056 206.156 19.444 204.56 19.444 201.8C19.444 199.04 20.056 197.444 22.156 197.444C24.256 197.444 24.868 199.04 24.868 201.8ZM20.428 201.8C20.428 203.78 20.572 205.244 22.156 205.244C23.74 205.244 23.872 203.768 23.872 201.8C23.872 199.832 23.74 198.356 22.156 198.356C20.572 198.356 20.428 199.844 20.428 201.8Z" fill="#57707A"/>
<path d="M0.408 94.308L1.236 93.948C1.464 94.596 1.968 95.256 3.072 95.256C3.96 95.256 4.596 94.74 4.596 93.864C4.596 91.764 0.66 92.304 0.66 89.592C0.66 88.5 1.416 87.612 2.688 87.48V86.808H3.42V87.468C4.668 87.624 5.244 88.536 5.436 89.052L4.62 89.388C4.428 88.968 3.972 88.332 3.048 88.332C2.124 88.332 1.632 88.896 1.632 89.592C1.632 91.512 5.58 91.116 5.58 93.804C5.58 95.016 4.764 95.988 3.42 96.132V97.032H2.688V96.132C1.296 96 0.648 95.064 0.408 94.308ZM6.44231 93.876V93.144L10.2703 87.6H11.3023V93.012H12.4063V93.876H11.3023V96H10.3423V93.876H6.44231ZM7.51031 93.012H10.3423V88.86L7.51031 93.012ZM18.8212 91.8C18.8212 94.56 18.2092 96.156 16.1092 96.156C14.0092 96.156 13.3972 94.56 13.3972 91.8C13.3972 89.04 14.0092 87.444 16.1092 87.444C18.2092 87.444 18.8212 89.04 18.8212 91.8ZM14.3812 91.8C14.3812 93.78 14.5252 95.244 16.1092 95.244C17.6932 95.244 17.8252 93.768 17.8252 91.8C17.8252 89.832 17.6932 88.356 16.1092 88.356C14.5252 88.356 14.3812 89.844 14.3812 91.8ZM25.4657 91.8C25.4657 94.56 24.8537 96.156 22.7537 96.156C20.6537 96.156 20.0417 94.56 20.0417 91.8C20.0417 89.04 20.6537 87.444 22.7537 87.444C24.8537 87.444 25.4657 89.04 25.4657 91.8ZM21.0257 91.8C21.0257 93.78 21.1697 95.244 22.7537 95.244C24.3377 95.244 24.4697 93.768 24.4697 91.8C24.4697 89.832 24.3377 88.356 22.7537 88.356C21.1697 88.356 21.0257 89.844 21.0257 91.8Z" fill="#57707A"/>
<path d="M392.814 306.6L395.826 313.08L398.85 306.6H400.086V315H399.15V308.064L396.306 314.232H395.346L392.502 308.064V315H391.566V306.6H392.814ZM401.444 313.08C401.444 311.892 402.44 311.028 403.844 311.028C404.636 311.028 405.236 311.328 405.488 311.592V310.824C405.488 309.948 404.9 309.444 403.976 309.444C403.208 309.444 402.584 309.72 402.14 309.984L401.756 309.288C402.176 309.024 403.004 308.604 404.06 308.604C405.764 308.604 406.436 309.552 406.436 310.884V315H405.62L405.512 314.472C405.188 314.844 404.66 315.156 403.82 315.156C402.452 315.156 401.444 314.292 401.444 313.08ZM402.404 313.068C402.404 313.788 403.016 314.364 403.976 314.364C404.888 314.364 405.524 313.824 405.524 313.068C405.524 312.288 404.9 311.784 403.964 311.784C403.016 311.784 402.404 312.336 402.404 313.068ZM410.765 308.604V309.552C409.337 309.552 408.917 310.68 408.917 312.012V315H407.969V308.76H408.905V309.804C409.121 309.18 409.817 308.604 410.765 308.604Z" fill="#57707A"/>
<path d="M229.84 315V306.6H233.824V307.488H230.812V310.368H233.452V311.244H230.812V315H229.84ZM234.667 311.904C234.667 309.912 236.035 308.604 237.691 308.604C239.527 308.604 240.655 309.924 240.655 311.796C240.655 311.832 240.655 311.964 240.643 312.084H235.639C235.651 313.476 236.587 314.316 237.883 314.316C238.939 314.316 239.527 313.764 239.827 313.344L240.451 313.8C240.103 314.388 239.287 315.156 237.871 315.156C235.975 315.156 234.667 313.824 234.667 311.904ZM235.687 311.376H239.683C239.623 310.08 238.723 309.42 237.691 309.42C236.671 309.42 235.759 310.2 235.687 311.376ZM241.86 315V306.324H242.808V309.768C243 309.444 243.708 308.604 245.016 308.604C246.78 308.604 247.992 309.972 247.992 311.892C247.992 313.8 246.72 315.156 244.944 315.156C243.588 315.156 242.928 314.244 242.772 314.016V315H241.86ZM242.772 311.904C242.772 313.212 243.588 314.304 244.884 314.304C246.084 314.304 247.02 313.356 247.02 311.904C247.02 310.476 246.132 309.468 244.908 309.468C243.732 309.468 242.772 310.356 242.772 311.904Z" fill="#57707A"/>
<path d="M559.584 312.276H556.296L555.288 315H554.304L557.448 306.6H558.432L561.576 315H560.592L559.584 312.276ZM559.296 311.436L557.94 307.668L556.596 311.436H559.296ZM562.546 317.244V308.76H563.458V309.744C563.614 309.516 564.274 308.604 565.63 308.604C567.406 308.604 568.678 309.96 568.678 311.868C568.678 313.8 567.466 315.156 565.702 315.156C564.394 315.156 563.686 314.316 563.494 313.992V317.244H562.546ZM563.458 311.868C563.458 313.404 564.418 314.292 565.594 314.292C566.818 314.292 567.706 313.296 567.706 311.868C567.706 310.404 566.77 309.468 565.57 309.468C564.274 309.468 563.458 310.56 563.458 311.868ZM572.701 308.604V309.552C571.273 309.552 570.853 310.68 570.853 312.012V315H569.905V308.76H570.841V309.804C571.057 309.18 571.753 308.604 572.701 308.604Z" fill="#57707A"/>
<path d="M716.05 306.6L719.062 313.08L722.086 306.6H723.322V315H722.386V308.064L719.542 314.232H718.582L715.738 308.064V315H714.802V306.6H716.05ZM724.68 313.08C724.68 311.892 725.676 311.028 727.08 311.028C727.872 311.028 728.472 311.328 728.724 311.592V310.824C728.724 309.948 728.136 309.444 727.212 309.444C726.444 309.444 725.82 309.72 725.376 309.984L724.992 309.288C725.412 309.024 726.24 308.604 727.296 308.604C729 308.604 729.672 309.552 729.672 310.884V315H728.856L728.748 314.472C728.424 314.844 727.896 315.156 727.056 315.156C725.688 315.156 724.68 314.292 724.68 313.08ZM725.64 313.068C725.64 313.788 726.252 314.364 727.212 314.364C728.124 314.364 728.76 313.824 728.76 313.068C728.76 312.288 728.136 311.784 727.2 311.784C726.252 311.784 725.64 312.336 725.64 313.068ZM733.053 317.148H732.105L733.005 314.94L730.461 308.76H731.493L733.473 313.776L735.393 308.76H736.401L733.053 317.148Z" fill="#57707A"/>
<path d="M882.443 314.952L882.551 314.088C882.551 314.088 882.947 314.196 883.343 314.196C884.003 314.196 884.399 313.824 884.399 312.972V306.6H885.371V313.104C885.371 314.4 884.639 315.072 883.451 315.072C882.947 315.072 882.551 314.988 882.443 314.952ZM889.279 315.156C887.827 315.156 887.071 314.076 887.071 312.66V308.76H888.019V312.696C888.019 313.692 888.655 314.292 889.495 314.292C890.455 314.292 891.115 313.584 891.115 312.552V308.76H892.075V315H891.127V314.1C890.839 314.664 890.131 315.156 889.279 315.156ZM896.443 308.604C897.895 308.604 898.639 309.684 898.639 311.1V315H897.691V311.064C897.691 310.068 897.067 309.468 896.215 309.468C895.255 309.468 894.595 310.176 894.595 311.208V315H893.647V308.76H894.583V309.66C894.883 309.096 895.579 308.604 896.443 308.604Z" fill="#57707A"/>
<defs>
<linearGradient id="paint0_linear_392_11212" x1="535.295" y1="-40.6087" x2="535.295" y2="310.913" gradientUnits="userSpaceOnUse">
<stop stop-color="#EDEDED"/>
<stop offset="1" stop-color="#F1EDFF" stop-opacity="0"/>
</linearGradient>
</defs>
</svg>
