<svg width="945" height="320" viewBox="0 0 945 320" fill="none" xmlns="http://www.w3.org/2000/svg">
<line x1="24.5" y1="-2.18557e-08" x2="24.5" y2="269" stroke="#ECECEE"/>
<path d="M0.78 202.221L0.48 201.417L1.932 200.841H2.724V209.241H1.752V201.825L0.78 202.221ZM9.76256 205.041C9.76256 207.801 9.15056 209.397 7.05056 209.397C4.95056 209.397 4.33856 207.801 4.33856 205.041C4.33856 202.281 4.95056 200.685 7.05056 200.685C9.15056 200.685 9.76256 202.281 9.76256 205.041ZM5.32256 205.041C5.32256 207.021 5.46656 208.485 7.05056 208.485C8.63456 208.485 8.76656 207.009 8.76656 205.041C8.76656 203.073 8.63456 201.597 7.05056 201.597C5.46656 201.597 5.32256 203.085 5.32256 205.041Z" fill="#57707A"/>
<line x1="944" y1="269.5" x2="24" y2="269.5" stroke="#ECECEE"/>
<line x1="944" y1="253.5" x2="24" y2="253.5" stroke="#ECECEE"/>
<line x1="944" y1="205.5" x2="24" y2="205.5" stroke="#ECECEE"/>
<line x1="944" y1="157.5" x2="24" y2="157.5" stroke="#ECECEE"/>
<line x1="944" y1="109.5" x2="24" y2="109.5" stroke="#ECECEE"/>
<line x1="944" y1="60.5" x2="24" y2="60.5" stroke="#ECECEE"/>
<line x1="21.5" y1="253.422" x2="30.5" y2="253.422" stroke="#ECECEE" stroke-linecap="round" stroke-linejoin="round"/>
<line x1="21.5" y1="205.351" x2="30.5" y2="205.351" stroke="#ECECEE" stroke-linecap="round" stroke-linejoin="round"/>
<line x1="21.5" y1="157.278" x2="30.5" y2="157.278" stroke="#ECECEE" stroke-linecap="round" stroke-linejoin="round"/>
<line x1="21.5" y1="109.207" x2="30.5" y2="109.207" stroke="#ECECEE" stroke-linecap="round" stroke-linejoin="round"/>
<line x1="21.5" y1="60.334" x2="30.5" y2="60.334" stroke="#ECECEE" stroke-linecap="round" stroke-linejoin="round"/>
<path d="M7.084 256.568C8.14 256.568 8.764 255.74 8.764 254.696C8.764 253.664 8.116 252.824 7 252.824C6.328 252.824 5.932 253.1 5.608 253.376L4.792 253.232L4.972 248.912H9.256V249.8H5.848L5.728 252.392C6.1 252.14 6.568 251.984 7.132 251.984C8.68 251.984 9.748 253.088 9.748 254.648C9.748 256.244 8.704 257.469 7.12 257.469C5.5 257.469 4.72 256.46 4.468 255.632L5.308 255.332C5.512 256.016 6.052 256.568 7.084 256.568Z" fill="#57707A"/>
<path d="M0.78 154.149L0.48 153.345L1.932 152.769H2.724V161.169H1.752V153.753L0.78 154.149ZM6.81056 160.425C7.86656 160.425 8.49056 159.597 8.49056 158.553C8.49056 157.521 7.84256 156.681 6.72656 156.681C6.05456 156.681 5.65856 156.957 5.33456 157.233L4.51856 157.089L4.69856 152.769H8.98256V153.657H5.57456L5.45456 156.249C5.82656 155.997 6.29456 155.841 6.85856 155.841C8.40656 155.841 9.47456 156.945 9.47456 158.505C9.47456 160.101 8.43056 161.325 6.84656 161.325C5.22656 161.325 4.44656 160.317 4.19456 159.489L5.03456 159.189C5.23856 159.873 5.77856 160.425 6.81056 160.425Z" fill="#57707A"/>
<path d="M0.528 65.0264V64.6664C0.528 62.3264 4.512 61.0184 4.512 58.8704C4.512 58.0184 3.96 57.3824 2.988 57.3824C2.04 57.3824 1.596 57.9944 1.416 58.6784L0.564 58.4384C0.696 57.7424 1.344 56.4704 3.012 56.4704C4.608 56.4704 5.508 57.5024 5.508 58.8464C5.508 61.3424 1.752 62.7104 1.644 64.1624H5.628V65.0264H0.528ZM9.20119 64.2824C10.2572 64.2824 10.8812 63.4544 10.8812 62.4104C10.8812 61.3784 10.2332 60.5384 9.11719 60.5384C8.44519 60.5384 8.04919 60.8144 7.72519 61.0904L6.90919 60.9464L7.08919 56.6264H11.3732V57.5144H7.96519L7.84519 60.1064C8.21719 59.8544 8.68519 59.6984 9.24919 59.6984C10.7972 59.6984 11.8652 60.8024 11.8652 62.3624C11.8652 63.9584 10.8212 65.1824 9.23719 65.1824C7.61719 65.1824 6.83719 64.1744 6.58519 63.3464L7.42519 63.0464C7.62919 63.7304 8.16919 64.2824 9.20119 64.2824Z" fill="#57707A"/>
<line x1="944" y1="12.5" x2="24" y2="12.5" stroke="#ECECEE"/>
<line x1="21.5" y1="12.334" x2="30.5" y2="12.334" stroke="#ECECEE" stroke-linecap="round" stroke-linejoin="round"/>
<path d="M5.448 8.62637V9.53837L3.252 12.1064C4.332 12.1064 5.748 12.8144 5.748 14.5784C5.748 16.0664 4.596 17.1704 3.084 17.1704C1.416 17.1704 0.708 16.1744 0.468 15.3464L1.296 15.0464C1.512 15.7184 2.028 16.2824 3.072 16.2824C4.032 16.2824 4.752 15.5864 4.752 14.6024C4.752 13.6424 4.068 12.9584 2.784 12.9584H2.136V12.1784L4.356 9.50237H0.744V8.62637H5.448ZM12.3407 12.8264C12.3407 15.5864 11.7287 17.1824 9.62869 17.1824C7.52869 17.1824 6.91669 15.5864 6.91669 12.8264C6.91669 10.0664 7.52869 8.47037 9.62869 8.47037C11.7287 8.47037 12.3407 10.0664 12.3407 12.8264ZM7.90069 12.8264C7.90069 14.8064 8.04469 16.2704 9.62869 16.2704C11.2127 16.2704 11.3447 14.7944 11.3447 12.8264C11.3447 10.8584 11.2127 9.38237 9.62869 9.38237C8.04469 9.38237 7.90069 10.8704 7.90069 12.8264Z" fill="#57707A"/>
<path d="M0.528 113.098V112.738C0.528 110.398 4.512 109.09 4.512 106.942C4.512 106.09 3.96 105.454 2.988 105.454C2.04 105.454 1.596 106.066 1.416 106.75L0.564 106.51C0.696 105.814 1.344 104.542 3.012 104.542C4.608 104.542 5.508 105.574 5.508 106.918C5.508 109.414 1.752 110.782 1.644 112.234H5.628V113.098H0.528ZM12.1532 108.898C12.1532 111.658 11.5412 113.254 9.44119 113.254C7.34119 113.254 6.72919 111.658 6.72919 108.898C6.72919 106.138 7.34119 104.542 9.44119 104.542C11.5412 104.542 12.1532 106.138 12.1532 108.898ZM7.71319 108.898C7.71319 110.878 7.85719 112.342 9.44119 112.342C11.0252 112.342 11.1572 110.866 11.1572 108.898C11.1572 106.93 11.0252 105.454 9.44119 105.454C7.85719 105.454 7.71319 106.942 7.71319 108.898Z" fill="#57707A"/>
<path d="M38.948 297V288.6H40.676C43.544 288.6 45.176 290.172 45.176 292.8C45.176 295.584 43.484 297 40.676 297H38.948ZM39.92 296.136H40.868C42.884 296.136 44.18 294.996 44.18 292.8C44.18 290.7 42.884 289.476 40.868 289.476H39.92V296.136ZM49.1795 293.832V292.944H52.2395V293.832H49.1795Z" fill="#57707A"/>
<path d="M56.6531 297V288.6H57.9971L62.1131 294.84V288.6H63.4211V297H62.1011L57.9731 290.796V297H56.6531ZM64.6449 295.068C64.6449 293.856 65.6289 293.004 67.0689 293.004C67.7889 293.004 68.3289 293.244 68.5689 293.46V292.872C68.5689 292.152 68.0649 291.72 67.2369 291.72C66.5409 291.72 65.9409 291.96 65.4849 292.212L64.9809 291.3C65.4849 290.976 66.3249 290.58 67.3689 290.58C69.2289 290.58 69.8649 291.588 69.8649 292.956V297H68.7249L68.6169 296.532C68.2929 296.892 67.7889 297.156 67.0089 297.156C65.6889 297.156 64.6449 296.328 64.6449 295.068ZM65.9529 295.032C65.9529 295.656 66.4929 296.112 67.2849 296.112C68.0529 296.112 68.6049 295.68 68.6049 295.032C68.6049 294.372 68.0649 293.952 67.2729 293.952C66.4809 293.952 65.9529 294.408 65.9529 295.032ZM71.2398 297V290.736H72.5478V297H71.2398ZM71.0718 289.188C71.0718 288.732 71.4318 288.372 71.8878 288.372C72.3438 288.372 72.7038 288.732 72.7038 289.188C72.7038 289.644 72.3438 290.004 71.8878 290.004C71.4318 290.004 71.0718 289.644 71.0718 289.188ZM77.0892 290.58V291.9C75.7212 291.9 75.3252 292.944 75.3252 294.3V297H74.0172V290.736H75.3012V291.72C75.5412 291.096 76.2012 290.58 77.0892 290.58ZM78.8789 293.88C78.8789 295.116 79.7069 295.992 80.8709 295.992C82.0349 295.992 82.8869 295.092 82.8869 293.868C82.8869 292.644 82.0349 291.744 80.8709 291.744C79.6949 291.744 78.8789 292.656 78.8789 293.88ZM77.5589 293.88C77.5589 291.984 78.9869 290.58 80.8709 290.58C82.8029 290.58 84.1949 291.984 84.1949 293.868C84.1949 295.752 82.7789 297.156 80.8709 297.156C78.9509 297.156 77.5589 295.776 77.5589 293.88ZM85.2789 297V288.324H86.5869V291.576C86.7549 291.3 87.4269 290.58 88.6149 290.58C90.4029 290.58 91.5909 291.948 91.5909 293.88C91.5909 295.8 90.3189 297.156 88.5309 297.156C87.3189 297.156 86.6829 296.4 86.5149 296.184V297H85.2789ZM86.5389 293.892C86.5389 295.044 87.2469 296.004 88.3989 296.004C89.4669 296.004 90.2709 295.176 90.2709 293.892C90.2709 292.632 89.5029 291.744 88.4109 291.744C87.3669 291.744 86.5389 292.524 86.5389 293.892ZM92.6734 297V290.736H93.9814V297H92.6734ZM92.5054 289.188C92.5054 288.732 92.8654 288.372 93.3214 288.372C93.7774 288.372 94.1374 288.732 94.1374 289.188C94.1374 289.644 93.7774 290.004 93.3214 290.004C92.8654 290.004 92.5054 289.644 92.5054 289.188Z" fill="#292724"/>
<path d="M43.424 312.276H40.136L39.128 315H38.144L41.288 306.6H42.272L45.416 315H44.432L43.424 312.276ZM43.136 311.436L41.78 307.668L40.436 311.436H43.136ZM49.1092 311.832V310.944H52.1692V311.832H49.1092Z" fill="#57707A"/>
<path d="M62.7028 313.116L63.0988 314.28C62.6788 314.604 61.7548 315.156 60.4588 315.156C57.9148 315.156 56.1388 313.272 56.1388 310.8C56.1388 308.328 57.9868 306.444 60.4468 306.444C61.6348 306.444 62.4987 306.888 62.9908 307.26L62.5948 308.436C62.2348 308.16 61.4668 307.692 60.4828 307.692C58.7308 307.692 57.5188 309.06 57.5188 310.8C57.5188 312.54 58.6948 313.908 60.4948 313.908C61.5868 313.908 62.3668 313.368 62.7028 313.116ZM63.8363 313.068C63.8363 311.856 64.8203 311.004 66.2603 311.004C66.9803 311.004 67.5203 311.244 67.7603 311.46V310.872C67.7603 310.152 67.2563 309.72 66.4283 309.72C65.7323 309.72 65.1323 309.96 64.6763 310.212L64.1723 309.3C64.6763 308.976 65.5163 308.58 66.5603 308.58C68.4203 308.58 69.0563 309.588 69.0563 310.956V315H67.9163L67.8083 314.532C67.4843 314.892 66.9803 315.156 66.2003 315.156C64.8803 315.156 63.8363 314.328 63.8363 313.068ZM65.1443 313.032C65.1443 313.656 65.6843 314.112 66.4763 314.112C67.2443 314.112 67.7963 313.68 67.7963 313.032C67.7963 312.372 67.2563 311.952 66.4643 311.952C65.6723 311.952 65.1443 312.408 65.1443 313.032ZM70.4312 317.244V308.736H71.6672V309.564C71.8352 309.336 72.4712 308.58 73.6832 308.58C75.4712 308.58 76.7432 309.948 76.7432 311.856C76.7432 313.8 75.5552 315.156 73.7672 315.156C72.5792 315.156 71.9072 314.436 71.7392 314.172V317.244H70.4312ZM71.6912 311.856C71.6912 313.212 72.5192 313.992 73.5632 313.992C74.6552 313.992 75.4232 313.116 75.4232 311.856C75.4232 310.572 74.6192 309.744 73.5512 309.744C72.3992 309.744 71.6912 310.704 71.6912 311.856ZM77.4655 311.892C77.4655 309.948 78.7975 308.58 80.5135 308.58C82.4095 308.58 83.5255 309.888 83.5255 311.856C83.5255 311.964 83.5255 312.072 83.5135 312.18H78.7975C78.8215 313.296 79.6255 314.016 80.7415 314.016C81.6895 314.016 82.2295 313.488 82.4695 313.14L83.3335 313.788C83.0335 314.304 82.2055 315.156 80.7175 315.156C78.7615 315.156 77.4655 313.788 77.4655 311.892ZM78.8455 311.28H82.1935C82.1455 310.248 81.4255 309.672 80.5255 309.672C79.6255 309.672 78.9295 310.296 78.8455 311.28ZM89.2075 315V307.8H87.0955V306.6H92.6515V307.8H90.5395V315H89.2075ZM93.9961 311.88C93.9961 313.116 94.8241 313.992 95.9881 313.992C97.1521 313.992 98.0041 313.092 98.0041 311.868C98.0041 310.644 97.1521 309.744 95.9881 309.744C94.8121 309.744 93.9961 310.656 93.9961 311.88ZM92.6761 311.88C92.6761 309.984 94.1041 308.58 95.9881 308.58C97.9201 308.58 99.3121 309.984 99.3121 311.868C99.3121 313.752 97.8961 315.156 95.9881 315.156C94.0681 315.156 92.6761 313.776 92.6761 311.88ZM106 315L104.596 310.512L103.18 315H101.74L99.7481 308.736H101.164L102.532 313.536C102.532 313.536 102.544 313.512 103.972 308.736H105.22C106.636 313.512 106.648 313.536 106.648 313.536L108.028 308.736H109.444L107.452 315H106ZM113.311 308.58C114.931 308.58 115.495 309.864 115.495 311.232V315H114.199V311.124C114.199 310.26 113.659 309.756 112.939 309.756C112.111 309.756 111.571 310.368 111.571 311.22V315H110.263V308.736H111.547V309.552C111.823 309.06 112.471 308.58 113.311 308.58Z" fill="#292724"/>
<path d="M64 15.5C64 11.3579 67.3579 8 71.5 8C75.6421 8 79 11.3579 79 15.5V253H64V15.5Z" fill="#FFC107"/>
<line x1="72" y1="264.756" x2="72" y2="273.974" stroke="#ECECEE" stroke-width="2" stroke-linecap="round" stroke-linejoin="round"/>
<path d="M130.948 297V288.6H132.676C135.544 288.6 137.176 290.172 137.176 292.8C137.176 295.584 135.484 297 132.676 297H130.948ZM131.92 296.136H132.868C134.884 296.136 136.18 294.996 136.18 292.8C136.18 290.7 134.884 289.476 132.868 289.476H131.92V296.136ZM141.18 293.832V292.944H144.24V293.832H141.18Z" fill="#57707A"/>
<path d="M148.653 297V288.6H149.997L154.113 294.84V288.6H155.421V297H154.101L149.973 290.796V297H148.653ZM156.645 295.068C156.645 293.856 157.629 293.004 159.069 293.004C159.789 293.004 160.329 293.244 160.569 293.46V292.872C160.569 292.152 160.065 291.72 159.237 291.72C158.541 291.72 157.941 291.96 157.485 292.212L156.981 291.3C157.485 290.976 158.325 290.58 159.369 290.58C161.229 290.58 161.865 291.588 161.865 292.956V297H160.725L160.617 296.532C160.293 296.892 159.789 297.156 159.009 297.156C157.689 297.156 156.645 296.328 156.645 295.068ZM157.953 295.032C157.953 295.656 158.493 296.112 159.285 296.112C160.053 296.112 160.605 295.68 160.605 295.032C160.605 294.372 160.065 293.952 159.273 293.952C158.481 293.952 157.953 294.408 157.953 295.032ZM163.24 297V290.736H164.548V297H163.24ZM163.072 289.188C163.072 288.732 163.432 288.372 163.888 288.372C164.344 288.372 164.704 288.732 164.704 289.188C164.704 289.644 164.344 290.004 163.888 290.004C163.432 290.004 163.072 289.644 163.072 289.188ZM169.089 290.58V291.9C167.721 291.9 167.325 292.944 167.325 294.3V297H166.017V290.736H167.301V291.72C167.541 291.096 168.201 290.58 169.089 290.58ZM170.879 293.88C170.879 295.116 171.707 295.992 172.871 295.992C174.035 295.992 174.887 295.092 174.887 293.868C174.887 292.644 174.035 291.744 172.871 291.744C171.695 291.744 170.879 292.656 170.879 293.88ZM169.559 293.88C169.559 291.984 170.987 290.58 172.871 290.58C174.803 290.58 176.195 291.984 176.195 293.868C176.195 295.752 174.779 297.156 172.871 297.156C170.951 297.156 169.559 295.776 169.559 293.88ZM177.279 297V288.324H178.587V291.576C178.755 291.3 179.427 290.58 180.615 290.58C182.403 290.58 183.591 291.948 183.591 293.88C183.591 295.8 182.319 297.156 180.531 297.156C179.319 297.156 178.683 296.4 178.515 296.184V297H177.279ZM178.539 293.892C178.539 295.044 179.247 296.004 180.399 296.004C181.467 296.004 182.271 295.176 182.271 293.892C182.271 292.632 181.503 291.744 180.411 291.744C179.367 291.744 178.539 292.524 178.539 293.892ZM184.673 297V290.736H185.981V297H184.673ZM184.505 289.188C184.505 288.732 184.865 288.372 185.321 288.372C185.777 288.372 186.137 288.732 186.137 289.188C186.137 289.644 185.777 290.004 185.321 290.004C184.865 290.004 184.505 289.644 184.505 289.188Z" fill="#292724"/>
<path d="M135.424 312.276H132.136L131.128 315H130.144L133.288 306.6H134.272L137.416 315H136.432L135.424 312.276ZM135.136 311.436L133.78 307.668L132.436 311.436H135.136ZM141.109 311.832V310.944H144.169V311.832H141.109Z" fill="#57707A"/>
<path d="M154.703 313.116L155.099 314.28C154.679 314.604 153.755 315.156 152.459 315.156C149.915 315.156 148.139 313.272 148.139 310.8C148.139 308.328 149.987 306.444 152.447 306.444C153.635 306.444 154.499 306.888 154.991 307.26L154.595 308.436C154.235 308.16 153.467 307.692 152.483 307.692C150.731 307.692 149.519 309.06 149.519 310.8C149.519 312.54 150.695 313.908 152.495 313.908C153.587 313.908 154.367 313.368 154.703 313.116ZM155.836 313.068C155.836 311.856 156.82 311.004 158.26 311.004C158.98 311.004 159.52 311.244 159.76 311.46V310.872C159.76 310.152 159.256 309.72 158.428 309.72C157.732 309.72 157.132 309.96 156.676 310.212L156.172 309.3C156.676 308.976 157.516 308.58 158.56 308.58C160.42 308.58 161.056 309.588 161.056 310.956V315H159.916L159.808 314.532C159.484 314.892 158.98 315.156 158.2 315.156C156.88 315.156 155.836 314.328 155.836 313.068ZM157.144 313.032C157.144 313.656 157.684 314.112 158.476 314.112C159.244 314.112 159.796 313.68 159.796 313.032C159.796 312.372 159.256 311.952 158.464 311.952C157.672 311.952 157.144 312.408 157.144 313.032ZM162.431 317.244V308.736H163.667V309.564C163.835 309.336 164.471 308.58 165.683 308.58C167.471 308.58 168.743 309.948 168.743 311.856C168.743 313.8 167.555 315.156 165.767 315.156C164.579 315.156 163.907 314.436 163.739 314.172V317.244H162.431ZM163.691 311.856C163.691 313.212 164.519 313.992 165.563 313.992C166.655 313.992 167.423 313.116 167.423 311.856C167.423 310.572 166.619 309.744 165.551 309.744C164.399 309.744 163.691 310.704 163.691 311.856ZM169.465 311.892C169.465 309.948 170.797 308.58 172.513 308.58C174.409 308.58 175.525 309.888 175.525 311.856C175.525 311.964 175.525 312.072 175.513 312.18H170.797C170.821 313.296 171.625 314.016 172.741 314.016C173.689 314.016 174.229 313.488 174.469 313.14L175.333 313.788C175.033 314.304 174.205 315.156 172.717 315.156C170.761 315.156 169.465 313.788 169.465 311.892ZM170.845 311.28H174.193C174.145 310.248 173.425 309.672 172.525 309.672C171.625 309.672 170.929 310.296 170.845 311.28ZM181.207 315V307.8H179.095V306.6H184.651V307.8H182.539V315H181.207ZM185.996 311.88C185.996 313.116 186.824 313.992 187.988 313.992C189.152 313.992 190.004 313.092 190.004 311.868C190.004 310.644 189.152 309.744 187.988 309.744C186.812 309.744 185.996 310.656 185.996 311.88ZM184.676 311.88C184.676 309.984 186.104 308.58 187.988 308.58C189.92 308.58 191.312 309.984 191.312 311.868C191.312 313.752 189.896 315.156 187.988 315.156C186.068 315.156 184.676 313.776 184.676 311.88ZM198 315L196.596 310.512L195.18 315H193.74L191.748 308.736H193.164L194.532 313.536C194.532 313.536 194.544 313.512 195.972 308.736H197.22C198.636 313.512 198.648 313.536 198.648 313.536L200.028 308.736H201.444L199.452 315H198ZM205.311 308.58C206.931 308.58 207.495 309.864 207.495 311.232V315H206.199V311.124C206.199 310.26 205.659 309.756 204.939 309.756C204.111 309.756 203.571 310.368 203.571 311.22V315H202.263V308.736H203.547V309.552C203.823 309.06 204.471 308.58 205.311 308.58Z" fill="#292724"/>
<path d="M156 46.5C156 42.3579 159.358 39 163.5 39C167.642 39 171 42.3579 171 46.5V253H156V46.5Z" fill="#FFC107"/>
<line x1="164" y1="264.756" x2="164" y2="273.974" stroke="#ECECEE" stroke-width="2" stroke-linecap="round" stroke-linejoin="round"/>
<path d="M222.948 297V288.6H224.676C227.544 288.6 229.176 290.172 229.176 292.8C229.176 295.584 227.484 297 224.676 297H222.948ZM223.92 296.136H224.868C226.884 296.136 228.18 294.996 228.18 292.8C228.18 290.7 226.884 289.476 224.868 289.476H223.92V296.136ZM233.18 293.832V292.944H236.24V293.832H233.18Z" fill="#57707A"/>
<path d="M240.653 297V288.6H241.997L246.113 294.84V288.6H247.421V297H246.101L241.973 290.796V297H240.653ZM248.645 295.068C248.645 293.856 249.629 293.004 251.069 293.004C251.789 293.004 252.329 293.244 252.569 293.46V292.872C252.569 292.152 252.065 291.72 251.237 291.72C250.541 291.72 249.941 291.96 249.485 292.212L248.981 291.3C249.485 290.976 250.325 290.58 251.369 290.58C253.229 290.58 253.865 291.588 253.865 292.956V297H252.725L252.617 296.532C252.293 296.892 251.789 297.156 251.009 297.156C249.689 297.156 248.645 296.328 248.645 295.068ZM249.953 295.032C249.953 295.656 250.493 296.112 251.285 296.112C252.053 296.112 252.605 295.68 252.605 295.032C252.605 294.372 252.065 293.952 251.273 293.952C250.481 293.952 249.953 294.408 249.953 295.032ZM255.24 297V290.736H256.548V297H255.24ZM255.072 289.188C255.072 288.732 255.432 288.372 255.888 288.372C256.344 288.372 256.704 288.732 256.704 289.188C256.704 289.644 256.344 290.004 255.888 290.004C255.432 290.004 255.072 289.644 255.072 289.188ZM261.089 290.58V291.9C259.721 291.9 259.325 292.944 259.325 294.3V297H258.017V290.736H259.301V291.72C259.541 291.096 260.201 290.58 261.089 290.58ZM262.879 293.88C262.879 295.116 263.707 295.992 264.871 295.992C266.035 295.992 266.887 295.092 266.887 293.868C266.887 292.644 266.035 291.744 264.871 291.744C263.695 291.744 262.879 292.656 262.879 293.88ZM261.559 293.88C261.559 291.984 262.987 290.58 264.871 290.58C266.803 290.58 268.195 291.984 268.195 293.868C268.195 295.752 266.779 297.156 264.871 297.156C262.951 297.156 261.559 295.776 261.559 293.88ZM269.279 297V288.324H270.587V291.576C270.755 291.3 271.427 290.58 272.615 290.58C274.403 290.58 275.591 291.948 275.591 293.88C275.591 295.8 274.319 297.156 272.531 297.156C271.319 297.156 270.683 296.4 270.515 296.184V297H269.279ZM270.539 293.892C270.539 295.044 271.247 296.004 272.399 296.004C273.467 296.004 274.271 295.176 274.271 293.892C274.271 292.632 273.503 291.744 272.411 291.744C271.367 291.744 270.539 292.524 270.539 293.892ZM276.673 297V290.736H277.981V297H276.673ZM276.505 289.188C276.505 288.732 276.865 288.372 277.321 288.372C277.777 288.372 278.137 288.732 278.137 289.188C278.137 289.644 277.777 290.004 277.321 290.004C276.865 290.004 276.505 289.644 276.505 289.188Z" fill="#292724"/>
<path d="M227.424 312.276H224.136L223.128 315H222.144L225.288 306.6H226.272L229.416 315H228.432L227.424 312.276ZM227.136 311.436L225.78 307.668L224.436 311.436H227.136ZM233.109 311.832V310.944H236.169V311.832H233.109Z" fill="#57707A"/>
<path d="M246.703 313.116L247.099 314.28C246.679 314.604 245.755 315.156 244.459 315.156C241.915 315.156 240.139 313.272 240.139 310.8C240.139 308.328 241.987 306.444 244.447 306.444C245.635 306.444 246.499 306.888 246.991 307.26L246.595 308.436C246.235 308.16 245.467 307.692 244.483 307.692C242.731 307.692 241.519 309.06 241.519 310.8C241.519 312.54 242.695 313.908 244.495 313.908C245.587 313.908 246.367 313.368 246.703 313.116ZM247.836 313.068C247.836 311.856 248.82 311.004 250.26 311.004C250.98 311.004 251.52 311.244 251.76 311.46V310.872C251.76 310.152 251.256 309.72 250.428 309.72C249.732 309.72 249.132 309.96 248.676 310.212L248.172 309.3C248.676 308.976 249.516 308.58 250.56 308.58C252.42 308.58 253.056 309.588 253.056 310.956V315H251.916L251.808 314.532C251.484 314.892 250.98 315.156 250.2 315.156C248.88 315.156 247.836 314.328 247.836 313.068ZM249.144 313.032C249.144 313.656 249.684 314.112 250.476 314.112C251.244 314.112 251.796 313.68 251.796 313.032C251.796 312.372 251.256 311.952 250.464 311.952C249.672 311.952 249.144 312.408 249.144 313.032ZM254.431 317.244V308.736H255.667V309.564C255.835 309.336 256.471 308.58 257.683 308.58C259.471 308.58 260.743 309.948 260.743 311.856C260.743 313.8 259.555 315.156 257.767 315.156C256.579 315.156 255.907 314.436 255.739 314.172V317.244H254.431ZM255.691 311.856C255.691 313.212 256.519 313.992 257.563 313.992C258.655 313.992 259.423 313.116 259.423 311.856C259.423 310.572 258.619 309.744 257.551 309.744C256.399 309.744 255.691 310.704 255.691 311.856ZM261.465 311.892C261.465 309.948 262.797 308.58 264.513 308.58C266.409 308.58 267.525 309.888 267.525 311.856C267.525 311.964 267.525 312.072 267.513 312.18H262.797C262.821 313.296 263.625 314.016 264.741 314.016C265.689 314.016 266.229 313.488 266.469 313.14L267.333 313.788C267.033 314.304 266.205 315.156 264.717 315.156C262.761 315.156 261.465 313.788 261.465 311.892ZM262.845 311.28H266.193C266.145 310.248 265.425 309.672 264.525 309.672C263.625 309.672 262.929 310.296 262.845 311.28ZM273.207 315V307.8H271.095V306.6H276.651V307.8H274.539V315H273.207ZM277.996 311.88C277.996 313.116 278.824 313.992 279.988 313.992C281.152 313.992 282.004 313.092 282.004 311.868C282.004 310.644 281.152 309.744 279.988 309.744C278.812 309.744 277.996 310.656 277.996 311.88ZM276.676 311.88C276.676 309.984 278.104 308.58 279.988 308.58C281.92 308.58 283.312 309.984 283.312 311.868C283.312 313.752 281.896 315.156 279.988 315.156C278.068 315.156 276.676 313.776 276.676 311.88ZM290 315L288.596 310.512L287.18 315H285.74L283.748 308.736H285.164L286.532 313.536C286.532 313.536 286.544 313.512 287.972 308.736H289.22C290.636 313.512 290.648 313.536 290.648 313.536L292.028 308.736H293.444L291.452 315H290ZM297.311 308.58C298.931 308.58 299.495 309.864 299.495 311.232V315H298.199V311.124C298.199 310.26 297.659 309.756 296.939 309.756C296.111 309.756 295.571 310.368 295.571 311.22V315H294.263V308.736H295.547V309.552C295.823 309.06 296.471 308.58 297.311 308.58Z" fill="#292724"/>
<path d="M248 78.5C248 74.3579 251.358 71 255.5 71C259.642 71 263 74.3579 263 78.5V253H248V78.5Z" fill="#FFC107"/>
<line x1="256" y1="264.756" x2="256" y2="273.974" stroke="#ECECEE" stroke-width="2" stroke-linecap="round" stroke-linejoin="round"/>
<path d="M314.948 297V288.6H316.676C319.544 288.6 321.176 290.172 321.176 292.8C321.176 295.584 319.484 297 316.676 297H314.948ZM315.92 296.136H316.868C318.884 296.136 320.18 294.996 320.18 292.8C320.18 290.7 318.884 289.476 316.868 289.476H315.92V296.136ZM325.18 293.832V292.944H328.24V293.832H325.18Z" fill="#57707A"/>
<path d="M332.653 297V288.6H333.997L338.113 294.84V288.6H339.421V297H338.101L333.973 290.796V297H332.653ZM340.645 295.068C340.645 293.856 341.629 293.004 343.069 293.004C343.789 293.004 344.329 293.244 344.569 293.46V292.872C344.569 292.152 344.065 291.72 343.237 291.72C342.541 291.72 341.941 291.96 341.485 292.212L340.981 291.3C341.485 290.976 342.325 290.58 343.369 290.58C345.229 290.58 345.865 291.588 345.865 292.956V297H344.725L344.617 296.532C344.293 296.892 343.789 297.156 343.009 297.156C341.689 297.156 340.645 296.328 340.645 295.068ZM341.953 295.032C341.953 295.656 342.493 296.112 343.285 296.112C344.053 296.112 344.605 295.68 344.605 295.032C344.605 294.372 344.065 293.952 343.273 293.952C342.481 293.952 341.953 294.408 341.953 295.032ZM347.24 297V290.736H348.548V297H347.24ZM347.072 289.188C347.072 288.732 347.432 288.372 347.888 288.372C348.344 288.372 348.704 288.732 348.704 289.188C348.704 289.644 348.344 290.004 347.888 290.004C347.432 290.004 347.072 289.644 347.072 289.188ZM353.089 290.58V291.9C351.721 291.9 351.325 292.944 351.325 294.3V297H350.017V290.736H351.301V291.72C351.541 291.096 352.201 290.58 353.089 290.58ZM354.879 293.88C354.879 295.116 355.707 295.992 356.871 295.992C358.035 295.992 358.887 295.092 358.887 293.868C358.887 292.644 358.035 291.744 356.871 291.744C355.695 291.744 354.879 292.656 354.879 293.88ZM353.559 293.88C353.559 291.984 354.987 290.58 356.871 290.58C358.803 290.58 360.195 291.984 360.195 293.868C360.195 295.752 358.779 297.156 356.871 297.156C354.951 297.156 353.559 295.776 353.559 293.88ZM361.279 297V288.324H362.587V291.576C362.755 291.3 363.427 290.58 364.615 290.58C366.403 290.58 367.591 291.948 367.591 293.88C367.591 295.8 366.319 297.156 364.531 297.156C363.319 297.156 362.683 296.4 362.515 296.184V297H361.279ZM362.539 293.892C362.539 295.044 363.247 296.004 364.399 296.004C365.467 296.004 366.271 295.176 366.271 293.892C366.271 292.632 365.503 291.744 364.411 291.744C363.367 291.744 362.539 292.524 362.539 293.892ZM368.673 297V290.736H369.981V297H368.673ZM368.505 289.188C368.505 288.732 368.865 288.372 369.321 288.372C369.777 288.372 370.137 288.732 370.137 289.188C370.137 289.644 369.777 290.004 369.321 290.004C368.865 290.004 368.505 289.644 368.505 289.188Z" fill="#292724"/>
<path d="M319.424 312.276H316.136L315.128 315H314.144L317.288 306.6H318.272L321.416 315H320.432L319.424 312.276ZM319.136 311.436L317.78 307.668L316.436 311.436H319.136ZM325.109 311.832V310.944H328.169V311.832H325.109Z" fill="#57707A"/>
<path d="M338.703 313.116L339.099 314.28C338.679 314.604 337.755 315.156 336.459 315.156C333.915 315.156 332.139 313.272 332.139 310.8C332.139 308.328 333.987 306.444 336.447 306.444C337.635 306.444 338.499 306.888 338.991 307.26L338.595 308.436C338.235 308.16 337.467 307.692 336.483 307.692C334.731 307.692 333.519 309.06 333.519 310.8C333.519 312.54 334.695 313.908 336.495 313.908C337.587 313.908 338.367 313.368 338.703 313.116ZM339.836 313.068C339.836 311.856 340.82 311.004 342.26 311.004C342.98 311.004 343.52 311.244 343.76 311.46V310.872C343.76 310.152 343.256 309.72 342.428 309.72C341.732 309.72 341.132 309.96 340.676 310.212L340.172 309.3C340.676 308.976 341.516 308.58 342.56 308.58C344.42 308.58 345.056 309.588 345.056 310.956V315H343.916L343.808 314.532C343.484 314.892 342.98 315.156 342.2 315.156C340.88 315.156 339.836 314.328 339.836 313.068ZM341.144 313.032C341.144 313.656 341.684 314.112 342.476 314.112C343.244 314.112 343.796 313.68 343.796 313.032C343.796 312.372 343.256 311.952 342.464 311.952C341.672 311.952 341.144 312.408 341.144 313.032ZM346.431 317.244V308.736H347.667V309.564C347.835 309.336 348.471 308.58 349.683 308.58C351.471 308.58 352.743 309.948 352.743 311.856C352.743 313.8 351.555 315.156 349.767 315.156C348.579 315.156 347.907 314.436 347.739 314.172V317.244H346.431ZM347.691 311.856C347.691 313.212 348.519 313.992 349.563 313.992C350.655 313.992 351.423 313.116 351.423 311.856C351.423 310.572 350.619 309.744 349.551 309.744C348.399 309.744 347.691 310.704 347.691 311.856ZM353.465 311.892C353.465 309.948 354.797 308.58 356.513 308.58C358.409 308.58 359.525 309.888 359.525 311.856C359.525 311.964 359.525 312.072 359.513 312.18H354.797C354.821 313.296 355.625 314.016 356.741 314.016C357.689 314.016 358.229 313.488 358.469 313.14L359.333 313.788C359.033 314.304 358.205 315.156 356.717 315.156C354.761 315.156 353.465 313.788 353.465 311.892ZM354.845 311.28H358.193C358.145 310.248 357.425 309.672 356.525 309.672C355.625 309.672 354.929 310.296 354.845 311.28ZM365.207 315V307.8H363.095V306.6H368.651V307.8H366.539V315H365.207ZM369.996 311.88C369.996 313.116 370.824 313.992 371.988 313.992C373.152 313.992 374.004 313.092 374.004 311.868C374.004 310.644 373.152 309.744 371.988 309.744C370.812 309.744 369.996 310.656 369.996 311.88ZM368.676 311.88C368.676 309.984 370.104 308.58 371.988 308.58C373.92 308.58 375.312 309.984 375.312 311.868C375.312 313.752 373.896 315.156 371.988 315.156C370.068 315.156 368.676 313.776 368.676 311.88ZM382 315L380.596 310.512L379.18 315H377.74L375.748 308.736H377.164L378.532 313.536C378.532 313.536 378.544 313.512 379.972 308.736H381.22C382.636 313.512 382.648 313.536 382.648 313.536L384.028 308.736H385.444L383.452 315H382ZM389.311 308.58C390.931 308.58 391.495 309.864 391.495 311.232V315H390.199V311.124C390.199 310.26 389.659 309.756 388.939 309.756C388.111 309.756 387.571 310.368 387.571 311.22V315H386.263V308.736H387.547V309.552C387.823 309.06 388.471 308.58 389.311 308.58Z" fill="#292724"/>
<path d="M340 116.5C340 112.358 343.358 109 347.5 109C351.642 109 355 112.358 355 116.5V253H340V116.5Z" fill="#FFC107"/>
<line x1="348" y1="264.756" x2="348" y2="273.974" stroke="#ECECEE" stroke-width="2" stroke-linecap="round" stroke-linejoin="round"/>
<path d="M406.948 297V288.6H408.676C411.544 288.6 413.176 290.172 413.176 292.8C413.176 295.584 411.484 297 408.676 297H406.948ZM407.92 296.136H408.868C410.884 296.136 412.18 294.996 412.18 292.8C412.18 290.7 410.884 289.476 408.868 289.476H407.92V296.136ZM417.18 293.832V292.944H420.24V293.832H417.18Z" fill="#57707A"/>
<path d="M424.653 297V288.6H425.997L430.113 294.84V288.6H431.421V297H430.101L425.973 290.796V297H424.653ZM432.645 295.068C432.645 293.856 433.629 293.004 435.069 293.004C435.789 293.004 436.329 293.244 436.569 293.46V292.872C436.569 292.152 436.065 291.72 435.237 291.72C434.541 291.72 433.941 291.96 433.485 292.212L432.981 291.3C433.485 290.976 434.325 290.58 435.369 290.58C437.229 290.58 437.865 291.588 437.865 292.956V297H436.725L436.617 296.532C436.293 296.892 435.789 297.156 435.009 297.156C433.689 297.156 432.645 296.328 432.645 295.068ZM433.953 295.032C433.953 295.656 434.493 296.112 435.285 296.112C436.053 296.112 436.605 295.68 436.605 295.032C436.605 294.372 436.065 293.952 435.273 293.952C434.481 293.952 433.953 294.408 433.953 295.032ZM439.24 297V290.736H440.548V297H439.24ZM439.072 289.188C439.072 288.732 439.432 288.372 439.888 288.372C440.344 288.372 440.704 288.732 440.704 289.188C440.704 289.644 440.344 290.004 439.888 290.004C439.432 290.004 439.072 289.644 439.072 289.188ZM445.089 290.58V291.9C443.721 291.9 443.325 292.944 443.325 294.3V297H442.017V290.736H443.301V291.72C443.541 291.096 444.201 290.58 445.089 290.58ZM446.879 293.88C446.879 295.116 447.707 295.992 448.871 295.992C450.035 295.992 450.887 295.092 450.887 293.868C450.887 292.644 450.035 291.744 448.871 291.744C447.695 291.744 446.879 292.656 446.879 293.88ZM445.559 293.88C445.559 291.984 446.987 290.58 448.871 290.58C450.803 290.58 452.195 291.984 452.195 293.868C452.195 295.752 450.779 297.156 448.871 297.156C446.951 297.156 445.559 295.776 445.559 293.88ZM453.279 297V288.324H454.587V291.576C454.755 291.3 455.427 290.58 456.615 290.58C458.403 290.58 459.591 291.948 459.591 293.88C459.591 295.8 458.319 297.156 456.531 297.156C455.319 297.156 454.683 296.4 454.515 296.184V297H453.279ZM454.539 293.892C454.539 295.044 455.247 296.004 456.399 296.004C457.467 296.004 458.271 295.176 458.271 293.892C458.271 292.632 457.503 291.744 456.411 291.744C455.367 291.744 454.539 292.524 454.539 293.892ZM460.673 297V290.736H461.981V297H460.673ZM460.505 289.188C460.505 288.732 460.865 288.372 461.321 288.372C461.777 288.372 462.137 288.732 462.137 289.188C462.137 289.644 461.777 290.004 461.321 290.004C460.865 290.004 460.505 289.644 460.505 289.188Z" fill="#292724"/>
<path d="M411.424 312.276H408.136L407.128 315H406.144L409.288 306.6H410.272L413.416 315H412.432L411.424 312.276ZM411.136 311.436L409.78 307.668L408.436 311.436H411.136ZM417.109 311.832V310.944H420.169V311.832H417.109Z" fill="#57707A"/>
<path d="M430.703 313.116L431.099 314.28C430.679 314.604 429.755 315.156 428.459 315.156C425.915 315.156 424.139 313.272 424.139 310.8C424.139 308.328 425.987 306.444 428.447 306.444C429.635 306.444 430.499 306.888 430.991 307.26L430.595 308.436C430.235 308.16 429.467 307.692 428.483 307.692C426.731 307.692 425.519 309.06 425.519 310.8C425.519 312.54 426.695 313.908 428.495 313.908C429.587 313.908 430.367 313.368 430.703 313.116ZM431.836 313.068C431.836 311.856 432.82 311.004 434.26 311.004C434.98 311.004 435.52 311.244 435.76 311.46V310.872C435.76 310.152 435.256 309.72 434.428 309.72C433.732 309.72 433.132 309.96 432.676 310.212L432.172 309.3C432.676 308.976 433.516 308.58 434.56 308.58C436.42 308.58 437.056 309.588 437.056 310.956V315H435.916L435.808 314.532C435.484 314.892 434.98 315.156 434.2 315.156C432.88 315.156 431.836 314.328 431.836 313.068ZM433.144 313.032C433.144 313.656 433.684 314.112 434.476 314.112C435.244 314.112 435.796 313.68 435.796 313.032C435.796 312.372 435.256 311.952 434.464 311.952C433.672 311.952 433.144 312.408 433.144 313.032ZM438.431 317.244V308.736H439.667V309.564C439.835 309.336 440.471 308.58 441.683 308.58C443.471 308.58 444.743 309.948 444.743 311.856C444.743 313.8 443.555 315.156 441.767 315.156C440.579 315.156 439.907 314.436 439.739 314.172V317.244H438.431ZM439.691 311.856C439.691 313.212 440.519 313.992 441.563 313.992C442.655 313.992 443.423 313.116 443.423 311.856C443.423 310.572 442.619 309.744 441.551 309.744C440.399 309.744 439.691 310.704 439.691 311.856ZM445.465 311.892C445.465 309.948 446.797 308.58 448.513 308.58C450.409 308.58 451.525 309.888 451.525 311.856C451.525 311.964 451.525 312.072 451.513 312.18H446.797C446.821 313.296 447.625 314.016 448.741 314.016C449.689 314.016 450.229 313.488 450.469 313.14L451.333 313.788C451.033 314.304 450.205 315.156 448.717 315.156C446.761 315.156 445.465 313.788 445.465 311.892ZM446.845 311.28H450.193C450.145 310.248 449.425 309.672 448.525 309.672C447.625 309.672 446.929 310.296 446.845 311.28ZM457.207 315V307.8H455.095V306.6H460.651V307.8H458.539V315H457.207ZM461.996 311.88C461.996 313.116 462.824 313.992 463.988 313.992C465.152 313.992 466.004 313.092 466.004 311.868C466.004 310.644 465.152 309.744 463.988 309.744C462.812 309.744 461.996 310.656 461.996 311.88ZM460.676 311.88C460.676 309.984 462.104 308.58 463.988 308.58C465.92 308.58 467.312 309.984 467.312 311.868C467.312 313.752 465.896 315.156 463.988 315.156C462.068 315.156 460.676 313.776 460.676 311.88ZM474 315L472.596 310.512L471.18 315H469.74L467.748 308.736H469.164L470.532 313.536C470.532 313.536 470.544 313.512 471.972 308.736H473.22C474.636 313.512 474.648 313.536 474.648 313.536L476.028 308.736H477.444L475.452 315H474ZM481.311 308.58C482.931 308.58 483.495 309.864 483.495 311.232V315H482.199V311.124C482.199 310.26 481.659 309.756 480.939 309.756C480.111 309.756 479.571 310.368 479.571 311.22V315H478.263V308.736H479.547V309.552C479.823 309.06 480.471 308.58 481.311 308.58Z" fill="#292724"/>
<path d="M432 159.5C432 155.358 435.358 152 439.5 152C443.642 152 447 155.358 447 159.5V253H432V159.5Z" fill="#FFC107"/>
<line x1="440" y1="264.756" x2="440" y2="273.974" stroke="#ECECEE" stroke-width="2" stroke-linecap="round" stroke-linejoin="round"/>
<path d="M498.948 297V288.6H500.676C503.544 288.6 505.176 290.172 505.176 292.8C505.176 295.584 503.484 297 500.676 297H498.948ZM499.92 296.136H500.868C502.884 296.136 504.18 294.996 504.18 292.8C504.18 290.7 502.884 289.476 500.868 289.476H499.92V296.136ZM509.18 293.832V292.944H512.24V293.832H509.18Z" fill="#57707A"/>
<path d="M516.653 297V288.6H517.997L522.113 294.84V288.6H523.421V297H522.101L517.973 290.796V297H516.653ZM524.645 295.068C524.645 293.856 525.629 293.004 527.069 293.004C527.789 293.004 528.329 293.244 528.569 293.46V292.872C528.569 292.152 528.065 291.72 527.237 291.72C526.541 291.72 525.941 291.96 525.485 292.212L524.981 291.3C525.485 290.976 526.325 290.58 527.369 290.58C529.229 290.58 529.865 291.588 529.865 292.956V297H528.725L528.617 296.532C528.293 296.892 527.789 297.156 527.009 297.156C525.689 297.156 524.645 296.328 524.645 295.068ZM525.953 295.032C525.953 295.656 526.493 296.112 527.285 296.112C528.053 296.112 528.605 295.68 528.605 295.032C528.605 294.372 528.065 293.952 527.273 293.952C526.481 293.952 525.953 294.408 525.953 295.032ZM531.24 297V290.736H532.548V297H531.24ZM531.072 289.188C531.072 288.732 531.432 288.372 531.888 288.372C532.344 288.372 532.704 288.732 532.704 289.188C532.704 289.644 532.344 290.004 531.888 290.004C531.432 290.004 531.072 289.644 531.072 289.188ZM537.089 290.58V291.9C535.721 291.9 535.325 292.944 535.325 294.3V297H534.017V290.736H535.301V291.72C535.541 291.096 536.201 290.58 537.089 290.58ZM538.879 293.88C538.879 295.116 539.707 295.992 540.871 295.992C542.035 295.992 542.887 295.092 542.887 293.868C542.887 292.644 542.035 291.744 540.871 291.744C539.695 291.744 538.879 292.656 538.879 293.88ZM537.559 293.88C537.559 291.984 538.987 290.58 540.871 290.58C542.803 290.58 544.195 291.984 544.195 293.868C544.195 295.752 542.779 297.156 540.871 297.156C538.951 297.156 537.559 295.776 537.559 293.88ZM545.279 297V288.324H546.587V291.576C546.755 291.3 547.427 290.58 548.615 290.58C550.403 290.58 551.591 291.948 551.591 293.88C551.591 295.8 550.319 297.156 548.531 297.156C547.319 297.156 546.683 296.4 546.515 296.184V297H545.279ZM546.539 293.892C546.539 295.044 547.247 296.004 548.399 296.004C549.467 296.004 550.271 295.176 550.271 293.892C550.271 292.632 549.503 291.744 548.411 291.744C547.367 291.744 546.539 292.524 546.539 293.892ZM552.673 297V290.736H553.981V297H552.673ZM552.505 289.188C552.505 288.732 552.865 288.372 553.321 288.372C553.777 288.372 554.137 288.732 554.137 289.188C554.137 289.644 553.777 290.004 553.321 290.004C552.865 290.004 552.505 289.644 552.505 289.188Z" fill="#292724"/>
<path d="M503.424 312.276H500.136L499.128 315H498.144L501.288 306.6H502.272L505.416 315H504.432L503.424 312.276ZM503.136 311.436L501.78 307.668L500.436 311.436H503.136ZM509.109 311.832V310.944H512.169V311.832H509.109Z" fill="#57707A"/>
<path d="M522.703 313.116L523.099 314.28C522.679 314.604 521.755 315.156 520.459 315.156C517.915 315.156 516.139 313.272 516.139 310.8C516.139 308.328 517.987 306.444 520.447 306.444C521.635 306.444 522.499 306.888 522.991 307.26L522.595 308.436C522.235 308.16 521.467 307.692 520.483 307.692C518.731 307.692 517.519 309.06 517.519 310.8C517.519 312.54 518.695 313.908 520.495 313.908C521.587 313.908 522.367 313.368 522.703 313.116ZM523.836 313.068C523.836 311.856 524.82 311.004 526.26 311.004C526.98 311.004 527.52 311.244 527.76 311.46V310.872C527.76 310.152 527.256 309.72 526.428 309.72C525.732 309.72 525.132 309.96 524.676 310.212L524.172 309.3C524.676 308.976 525.516 308.58 526.56 308.58C528.42 308.58 529.056 309.588 529.056 310.956V315H527.916L527.808 314.532C527.484 314.892 526.98 315.156 526.2 315.156C524.88 315.156 523.836 314.328 523.836 313.068ZM525.144 313.032C525.144 313.656 525.684 314.112 526.476 314.112C527.244 314.112 527.796 313.68 527.796 313.032C527.796 312.372 527.256 311.952 526.464 311.952C525.672 311.952 525.144 312.408 525.144 313.032ZM530.431 317.244V308.736H531.667V309.564C531.835 309.336 532.471 308.58 533.683 308.58C535.471 308.58 536.743 309.948 536.743 311.856C536.743 313.8 535.555 315.156 533.767 315.156C532.579 315.156 531.907 314.436 531.739 314.172V317.244H530.431ZM531.691 311.856C531.691 313.212 532.519 313.992 533.563 313.992C534.655 313.992 535.423 313.116 535.423 311.856C535.423 310.572 534.619 309.744 533.551 309.744C532.399 309.744 531.691 310.704 531.691 311.856ZM537.465 311.892C537.465 309.948 538.797 308.58 540.513 308.58C542.409 308.58 543.525 309.888 543.525 311.856C543.525 311.964 543.525 312.072 543.513 312.18H538.797C538.821 313.296 539.625 314.016 540.741 314.016C541.689 314.016 542.229 313.488 542.469 313.14L543.333 313.788C543.033 314.304 542.205 315.156 540.717 315.156C538.761 315.156 537.465 313.788 537.465 311.892ZM538.845 311.28H542.193C542.145 310.248 541.425 309.672 540.525 309.672C539.625 309.672 538.929 310.296 538.845 311.28ZM549.207 315V307.8H547.095V306.6H552.651V307.8H550.539V315H549.207ZM553.996 311.88C553.996 313.116 554.824 313.992 555.988 313.992C557.152 313.992 558.004 313.092 558.004 311.868C558.004 310.644 557.152 309.744 555.988 309.744C554.812 309.744 553.996 310.656 553.996 311.88ZM552.676 311.88C552.676 309.984 554.104 308.58 555.988 308.58C557.92 308.58 559.312 309.984 559.312 311.868C559.312 313.752 557.896 315.156 555.988 315.156C554.068 315.156 552.676 313.776 552.676 311.88ZM566 315L564.596 310.512L563.18 315H561.74L559.748 308.736H561.164L562.532 313.536C562.532 313.536 562.544 313.512 563.972 308.736H565.22C566.636 313.512 566.648 313.536 566.648 313.536L568.028 308.736H569.444L567.452 315H566ZM573.311 308.58C574.931 308.58 575.495 309.864 575.495 311.232V315H574.199V311.124C574.199 310.26 573.659 309.756 572.939 309.756C572.111 309.756 571.571 310.368 571.571 311.22V315H570.263V308.736H571.547V309.552C571.823 309.06 572.471 308.58 573.311 308.58Z" fill="#292724"/>
<path d="M524 185.5C524 181.358 527.358 178 531.5 178C535.642 178 539 181.358 539 185.5V253H524V185.5Z" fill="#EDEDED"/>
<line x1="532" y1="264.756" x2="532" y2="273.974" stroke="#ECECEE" stroke-width="2" stroke-linecap="round" stroke-linejoin="round"/>
<path d="M590.948 297V288.6H592.676C595.544 288.6 597.176 290.172 597.176 292.8C597.176 295.584 595.484 297 592.676 297H590.948ZM591.92 296.136H592.868C594.884 296.136 596.18 294.996 596.18 292.8C596.18 290.7 594.884 289.476 592.868 289.476H591.92V296.136ZM601.18 293.832V292.944H604.24V293.832H601.18Z" fill="#57707A"/>
<path d="M608.653 297V288.6H609.997L614.113 294.84V288.6H615.421V297H614.101L609.973 290.796V297H608.653ZM616.645 295.068C616.645 293.856 617.629 293.004 619.069 293.004C619.789 293.004 620.329 293.244 620.569 293.46V292.872C620.569 292.152 620.065 291.72 619.237 291.72C618.541 291.72 617.941 291.96 617.485 292.212L616.981 291.3C617.485 290.976 618.325 290.58 619.369 290.58C621.229 290.58 621.865 291.588 621.865 292.956V297H620.725L620.617 296.532C620.293 296.892 619.789 297.156 619.009 297.156C617.689 297.156 616.645 296.328 616.645 295.068ZM617.953 295.032C617.953 295.656 618.493 296.112 619.285 296.112C620.053 296.112 620.605 295.68 620.605 295.032C620.605 294.372 620.065 293.952 619.273 293.952C618.481 293.952 617.953 294.408 617.953 295.032ZM623.24 297V290.736H624.548V297H623.24ZM623.072 289.188C623.072 288.732 623.432 288.372 623.888 288.372C624.344 288.372 624.704 288.732 624.704 289.188C624.704 289.644 624.344 290.004 623.888 290.004C623.432 290.004 623.072 289.644 623.072 289.188ZM629.089 290.58V291.9C627.721 291.9 627.325 292.944 627.325 294.3V297H626.017V290.736H627.301V291.72C627.541 291.096 628.201 290.58 629.089 290.58ZM630.879 293.88C630.879 295.116 631.707 295.992 632.871 295.992C634.035 295.992 634.887 295.092 634.887 293.868C634.887 292.644 634.035 291.744 632.871 291.744C631.695 291.744 630.879 292.656 630.879 293.88ZM629.559 293.88C629.559 291.984 630.987 290.58 632.871 290.58C634.803 290.58 636.195 291.984 636.195 293.868C636.195 295.752 634.779 297.156 632.871 297.156C630.951 297.156 629.559 295.776 629.559 293.88ZM637.279 297V288.324H638.587V291.576C638.755 291.3 639.427 290.58 640.615 290.58C642.403 290.58 643.591 291.948 643.591 293.88C643.591 295.8 642.319 297.156 640.531 297.156C639.319 297.156 638.683 296.4 638.515 296.184V297H637.279ZM638.539 293.892C638.539 295.044 639.247 296.004 640.399 296.004C641.467 296.004 642.271 295.176 642.271 293.892C642.271 292.632 641.503 291.744 640.411 291.744C639.367 291.744 638.539 292.524 638.539 293.892ZM644.673 297V290.736H645.981V297H644.673ZM644.505 289.188C644.505 288.732 644.865 288.372 645.321 288.372C645.777 288.372 646.137 288.732 646.137 289.188C646.137 289.644 645.777 290.004 645.321 290.004C644.865 290.004 644.505 289.644 644.505 289.188Z" fill="#292724"/>
<path d="M595.424 312.276H592.136L591.128 315H590.144L593.288 306.6H594.272L597.416 315H596.432L595.424 312.276ZM595.136 311.436L593.78 307.668L592.436 311.436H595.136ZM601.109 311.832V310.944H604.169V311.832H601.109Z" fill="#57707A"/>
<path d="M614.703 313.116L615.099 314.28C614.679 314.604 613.755 315.156 612.459 315.156C609.915 315.156 608.139 313.272 608.139 310.8C608.139 308.328 609.987 306.444 612.447 306.444C613.635 306.444 614.499 306.888 614.991 307.26L614.595 308.436C614.235 308.16 613.467 307.692 612.483 307.692C610.731 307.692 609.519 309.06 609.519 310.8C609.519 312.54 610.695 313.908 612.495 313.908C613.587 313.908 614.367 313.368 614.703 313.116ZM615.836 313.068C615.836 311.856 616.82 311.004 618.26 311.004C618.98 311.004 619.52 311.244 619.76 311.46V310.872C619.76 310.152 619.256 309.72 618.428 309.72C617.732 309.72 617.132 309.96 616.676 310.212L616.172 309.3C616.676 308.976 617.516 308.58 618.56 308.58C620.42 308.58 621.056 309.588 621.056 310.956V315H619.916L619.808 314.532C619.484 314.892 618.98 315.156 618.2 315.156C616.88 315.156 615.836 314.328 615.836 313.068ZM617.144 313.032C617.144 313.656 617.684 314.112 618.476 314.112C619.244 314.112 619.796 313.68 619.796 313.032C619.796 312.372 619.256 311.952 618.464 311.952C617.672 311.952 617.144 312.408 617.144 313.032ZM622.431 317.244V308.736H623.667V309.564C623.835 309.336 624.471 308.58 625.683 308.58C627.471 308.58 628.743 309.948 628.743 311.856C628.743 313.8 627.555 315.156 625.767 315.156C624.579 315.156 623.907 314.436 623.739 314.172V317.244H622.431ZM623.691 311.856C623.691 313.212 624.519 313.992 625.563 313.992C626.655 313.992 627.423 313.116 627.423 311.856C627.423 310.572 626.619 309.744 625.551 309.744C624.399 309.744 623.691 310.704 623.691 311.856ZM629.465 311.892C629.465 309.948 630.797 308.58 632.513 308.58C634.409 308.58 635.525 309.888 635.525 311.856C635.525 311.964 635.525 312.072 635.513 312.18H630.797C630.821 313.296 631.625 314.016 632.741 314.016C633.689 314.016 634.229 313.488 634.469 313.14L635.333 313.788C635.033 314.304 634.205 315.156 632.717 315.156C630.761 315.156 629.465 313.788 629.465 311.892ZM630.845 311.28H634.193C634.145 310.248 633.425 309.672 632.525 309.672C631.625 309.672 630.929 310.296 630.845 311.28ZM641.207 315V307.8H639.095V306.6H644.651V307.8H642.539V315H641.207ZM645.996 311.88C645.996 313.116 646.824 313.992 647.988 313.992C649.152 313.992 650.004 313.092 650.004 311.868C650.004 310.644 649.152 309.744 647.988 309.744C646.812 309.744 645.996 310.656 645.996 311.88ZM644.676 311.88C644.676 309.984 646.104 308.58 647.988 308.58C649.92 308.58 651.312 309.984 651.312 311.868C651.312 313.752 649.896 315.156 647.988 315.156C646.068 315.156 644.676 313.776 644.676 311.88ZM658 315L656.596 310.512L655.18 315H653.74L651.748 308.736H653.164L654.532 313.536C654.532 313.536 654.544 313.512 655.972 308.736H657.22C658.636 313.512 658.648 313.536 658.648 313.536L660.028 308.736H661.444L659.452 315H658ZM665.311 308.58C666.931 308.58 667.495 309.864 667.495 311.232V315H666.199V311.124C666.199 310.26 665.659 309.756 664.939 309.756C664.111 309.756 663.571 310.368 663.571 311.22V315H662.263V308.736H663.547V309.552C663.823 309.06 664.471 308.58 665.311 308.58Z" fill="#292724"/>
<path d="M616 200.5C616 196.358 619.358 193 623.5 193C627.642 193 631 196.358 631 200.5V253H616V200.5Z" fill="#EDEDED"/>
<line x1="624" y1="264.756" x2="624" y2="273.974" stroke="#ECECEE" stroke-width="2" stroke-linecap="round" stroke-linejoin="round"/>
<path d="M682.948 297V288.6H684.676C687.544 288.6 689.176 290.172 689.176 292.8C689.176 295.584 687.484 297 684.676 297H682.948ZM683.92 296.136H684.868C686.884 296.136 688.18 294.996 688.18 292.8C688.18 290.7 686.884 289.476 684.868 289.476H683.92V296.136ZM693.18 293.832V292.944H696.24V293.832H693.18Z" fill="#57707A"/>
<path d="M700.653 297V288.6H701.997L706.113 294.84V288.6H707.421V297H706.101L701.973 290.796V297H700.653ZM708.645 295.068C708.645 293.856 709.629 293.004 711.069 293.004C711.789 293.004 712.329 293.244 712.569 293.46V292.872C712.569 292.152 712.065 291.72 711.237 291.72C710.541 291.72 709.941 291.96 709.485 292.212L708.981 291.3C709.485 290.976 710.325 290.58 711.369 290.58C713.229 290.58 713.865 291.588 713.865 292.956V297H712.725L712.617 296.532C712.293 296.892 711.789 297.156 711.009 297.156C709.689 297.156 708.645 296.328 708.645 295.068ZM709.953 295.032C709.953 295.656 710.493 296.112 711.285 296.112C712.053 296.112 712.605 295.68 712.605 295.032C712.605 294.372 712.065 293.952 711.273 293.952C710.481 293.952 709.953 294.408 709.953 295.032ZM715.24 297V290.736H716.548V297H715.24ZM715.072 289.188C715.072 288.732 715.432 288.372 715.888 288.372C716.344 288.372 716.704 288.732 716.704 289.188C716.704 289.644 716.344 290.004 715.888 290.004C715.432 290.004 715.072 289.644 715.072 289.188ZM721.089 290.58V291.9C719.721 291.9 719.325 292.944 719.325 294.3V297H718.017V290.736H719.301V291.72C719.541 291.096 720.201 290.58 721.089 290.58ZM722.879 293.88C722.879 295.116 723.707 295.992 724.871 295.992C726.035 295.992 726.887 295.092 726.887 293.868C726.887 292.644 726.035 291.744 724.871 291.744C723.695 291.744 722.879 292.656 722.879 293.88ZM721.559 293.88C721.559 291.984 722.987 290.58 724.871 290.58C726.803 290.58 728.195 291.984 728.195 293.868C728.195 295.752 726.779 297.156 724.871 297.156C722.951 297.156 721.559 295.776 721.559 293.88ZM729.279 297V288.324H730.587V291.576C730.755 291.3 731.427 290.58 732.615 290.58C734.403 290.58 735.591 291.948 735.591 293.88C735.591 295.8 734.319 297.156 732.531 297.156C731.319 297.156 730.683 296.4 730.515 296.184V297H729.279ZM730.539 293.892C730.539 295.044 731.247 296.004 732.399 296.004C733.467 296.004 734.271 295.176 734.271 293.892C734.271 292.632 733.503 291.744 732.411 291.744C731.367 291.744 730.539 292.524 730.539 293.892ZM736.673 297V290.736H737.981V297H736.673ZM736.505 289.188C736.505 288.732 736.865 288.372 737.321 288.372C737.777 288.372 738.137 288.732 738.137 289.188C738.137 289.644 737.777 290.004 737.321 290.004C736.865 290.004 736.505 289.644 736.505 289.188Z" fill="#292724"/>
<path d="M687.424 312.276H684.136L683.128 315H682.144L685.288 306.6H686.272L689.416 315H688.432L687.424 312.276ZM687.136 311.436L685.78 307.668L684.436 311.436H687.136ZM693.109 311.832V310.944H696.169V311.832H693.109Z" fill="#57707A"/>
<path d="M706.703 313.116L707.099 314.28C706.679 314.604 705.755 315.156 704.459 315.156C701.915 315.156 700.139 313.272 700.139 310.8C700.139 308.328 701.987 306.444 704.447 306.444C705.635 306.444 706.499 306.888 706.991 307.26L706.595 308.436C706.235 308.16 705.467 307.692 704.483 307.692C702.731 307.692 701.519 309.06 701.519 310.8C701.519 312.54 702.695 313.908 704.495 313.908C705.587 313.908 706.367 313.368 706.703 313.116ZM707.836 313.068C707.836 311.856 708.82 311.004 710.26 311.004C710.98 311.004 711.52 311.244 711.76 311.46V310.872C711.76 310.152 711.256 309.72 710.428 309.72C709.732 309.72 709.132 309.96 708.676 310.212L708.172 309.3C708.676 308.976 709.516 308.58 710.56 308.58C712.42 308.58 713.056 309.588 713.056 310.956V315H711.916L711.808 314.532C711.484 314.892 710.98 315.156 710.2 315.156C708.88 315.156 707.836 314.328 707.836 313.068ZM709.144 313.032C709.144 313.656 709.684 314.112 710.476 314.112C711.244 314.112 711.796 313.68 711.796 313.032C711.796 312.372 711.256 311.952 710.464 311.952C709.672 311.952 709.144 312.408 709.144 313.032ZM714.431 317.244V308.736H715.667V309.564C715.835 309.336 716.471 308.58 717.683 308.58C719.471 308.58 720.743 309.948 720.743 311.856C720.743 313.8 719.555 315.156 717.767 315.156C716.579 315.156 715.907 314.436 715.739 314.172V317.244H714.431ZM715.691 311.856C715.691 313.212 716.519 313.992 717.563 313.992C718.655 313.992 719.423 313.116 719.423 311.856C719.423 310.572 718.619 309.744 717.551 309.744C716.399 309.744 715.691 310.704 715.691 311.856ZM721.465 311.892C721.465 309.948 722.797 308.58 724.513 308.58C726.409 308.58 727.525 309.888 727.525 311.856C727.525 311.964 727.525 312.072 727.513 312.18H722.797C722.821 313.296 723.625 314.016 724.741 314.016C725.689 314.016 726.229 313.488 726.469 313.14L727.333 313.788C727.033 314.304 726.205 315.156 724.717 315.156C722.761 315.156 721.465 313.788 721.465 311.892ZM722.845 311.28H726.193C726.145 310.248 725.425 309.672 724.525 309.672C723.625 309.672 722.929 310.296 722.845 311.28ZM733.207 315V307.8H731.095V306.6H736.651V307.8H734.539V315H733.207ZM737.996 311.88C737.996 313.116 738.824 313.992 739.988 313.992C741.152 313.992 742.004 313.092 742.004 311.868C742.004 310.644 741.152 309.744 739.988 309.744C738.812 309.744 737.996 310.656 737.996 311.88ZM736.676 311.88C736.676 309.984 738.104 308.58 739.988 308.58C741.92 308.58 743.312 309.984 743.312 311.868C743.312 313.752 741.896 315.156 739.988 315.156C738.068 315.156 736.676 313.776 736.676 311.88ZM750 315L748.596 310.512L747.18 315H745.74L743.748 308.736H745.164L746.532 313.536C746.532 313.536 746.544 313.512 747.972 308.736H749.22C750.636 313.512 750.648 313.536 750.648 313.536L752.028 308.736H753.444L751.452 315H750ZM757.311 308.58C758.931 308.58 759.495 309.864 759.495 311.232V315H758.199V311.124C758.199 310.26 757.659 309.756 756.939 309.756C756.111 309.756 755.571 310.368 755.571 311.22V315H754.263V308.736H755.547V309.552C755.823 309.06 756.471 308.58 757.311 308.58Z" fill="#292724"/>
<path d="M708 212.5C708 208.358 711.358 205 715.5 205C719.642 205 723 208.358 723 212.5V253H708V212.5Z" fill="#EDEDED"/>
<line x1="716" y1="264.756" x2="716" y2="273.974" stroke="#ECECEE" stroke-width="2" stroke-linecap="round" stroke-linejoin="round"/>
<path d="M774.948 297V288.6H776.676C779.544 288.6 781.176 290.172 781.176 292.8C781.176 295.584 779.484 297 776.676 297H774.948ZM775.92 296.136H776.868C778.884 296.136 780.18 294.996 780.18 292.8C780.18 290.7 778.884 289.476 776.868 289.476H775.92V296.136ZM785.18 293.832V292.944H788.24V293.832H785.18Z" fill="#57707A"/>
<path d="M792.653 297V288.6H793.997L798.113 294.84V288.6H799.421V297H798.101L793.973 290.796V297H792.653ZM800.645 295.068C800.645 293.856 801.629 293.004 803.069 293.004C803.789 293.004 804.329 293.244 804.569 293.46V292.872C804.569 292.152 804.065 291.72 803.237 291.72C802.541 291.72 801.941 291.96 801.485 292.212L800.981 291.3C801.485 290.976 802.325 290.58 803.369 290.58C805.229 290.58 805.865 291.588 805.865 292.956V297H804.725L804.617 296.532C804.293 296.892 803.789 297.156 803.009 297.156C801.689 297.156 800.645 296.328 800.645 295.068ZM801.953 295.032C801.953 295.656 802.493 296.112 803.285 296.112C804.053 296.112 804.605 295.68 804.605 295.032C804.605 294.372 804.065 293.952 803.273 293.952C802.481 293.952 801.953 294.408 801.953 295.032ZM807.24 297V290.736H808.548V297H807.24ZM807.072 289.188C807.072 288.732 807.432 288.372 807.888 288.372C808.344 288.372 808.704 288.732 808.704 289.188C808.704 289.644 808.344 290.004 807.888 290.004C807.432 290.004 807.072 289.644 807.072 289.188ZM813.089 290.58V291.9C811.721 291.9 811.325 292.944 811.325 294.3V297H810.017V290.736H811.301V291.72C811.541 291.096 812.201 290.58 813.089 290.58ZM814.879 293.88C814.879 295.116 815.707 295.992 816.871 295.992C818.035 295.992 818.887 295.092 818.887 293.868C818.887 292.644 818.035 291.744 816.871 291.744C815.695 291.744 814.879 292.656 814.879 293.88ZM813.559 293.88C813.559 291.984 814.987 290.58 816.871 290.58C818.803 290.58 820.195 291.984 820.195 293.868C820.195 295.752 818.779 297.156 816.871 297.156C814.951 297.156 813.559 295.776 813.559 293.88ZM821.279 297V288.324H822.587V291.576C822.755 291.3 823.427 290.58 824.615 290.58C826.403 290.58 827.591 291.948 827.591 293.88C827.591 295.8 826.319 297.156 824.531 297.156C823.319 297.156 822.683 296.4 822.515 296.184V297H821.279ZM822.539 293.892C822.539 295.044 823.247 296.004 824.399 296.004C825.467 296.004 826.271 295.176 826.271 293.892C826.271 292.632 825.503 291.744 824.411 291.744C823.367 291.744 822.539 292.524 822.539 293.892ZM828.673 297V290.736H829.981V297H828.673ZM828.505 289.188C828.505 288.732 828.865 288.372 829.321 288.372C829.777 288.372 830.137 288.732 830.137 289.188C830.137 289.644 829.777 290.004 829.321 290.004C828.865 290.004 828.505 289.644 828.505 289.188Z" fill="#292724"/>
<path d="M779.424 312.276H776.136L775.128 315H774.144L777.288 306.6H778.272L781.416 315H780.432L779.424 312.276ZM779.136 311.436L777.78 307.668L776.436 311.436H779.136ZM785.109 311.832V310.944H788.169V311.832H785.109Z" fill="#57707A"/>
<path d="M798.703 313.116L799.099 314.28C798.679 314.604 797.755 315.156 796.459 315.156C793.915 315.156 792.139 313.272 792.139 310.8C792.139 308.328 793.987 306.444 796.447 306.444C797.635 306.444 798.499 306.888 798.991 307.26L798.595 308.436C798.235 308.16 797.467 307.692 796.483 307.692C794.731 307.692 793.519 309.06 793.519 310.8C793.519 312.54 794.695 313.908 796.495 313.908C797.587 313.908 798.367 313.368 798.703 313.116ZM799.836 313.068C799.836 311.856 800.82 311.004 802.26 311.004C802.98 311.004 803.52 311.244 803.76 311.46V310.872C803.76 310.152 803.256 309.72 802.428 309.72C801.732 309.72 801.132 309.96 800.676 310.212L800.172 309.3C800.676 308.976 801.516 308.58 802.56 308.58C804.42 308.58 805.056 309.588 805.056 310.956V315H803.916L803.808 314.532C803.484 314.892 802.98 315.156 802.2 315.156C800.88 315.156 799.836 314.328 799.836 313.068ZM801.144 313.032C801.144 313.656 801.684 314.112 802.476 314.112C803.244 314.112 803.796 313.68 803.796 313.032C803.796 312.372 803.256 311.952 802.464 311.952C801.672 311.952 801.144 312.408 801.144 313.032ZM806.431 317.244V308.736H807.667V309.564C807.835 309.336 808.471 308.58 809.683 308.58C811.471 308.58 812.743 309.948 812.743 311.856C812.743 313.8 811.555 315.156 809.767 315.156C808.579 315.156 807.907 314.436 807.739 314.172V317.244H806.431ZM807.691 311.856C807.691 313.212 808.519 313.992 809.563 313.992C810.655 313.992 811.423 313.116 811.423 311.856C811.423 310.572 810.619 309.744 809.551 309.744C808.399 309.744 807.691 310.704 807.691 311.856ZM813.465 311.892C813.465 309.948 814.797 308.58 816.513 308.58C818.409 308.58 819.525 309.888 819.525 311.856C819.525 311.964 819.525 312.072 819.513 312.18H814.797C814.821 313.296 815.625 314.016 816.741 314.016C817.689 314.016 818.229 313.488 818.469 313.14L819.333 313.788C819.033 314.304 818.205 315.156 816.717 315.156C814.761 315.156 813.465 313.788 813.465 311.892ZM814.845 311.28H818.193C818.145 310.248 817.425 309.672 816.525 309.672C815.625 309.672 814.929 310.296 814.845 311.28ZM825.207 315V307.8H823.095V306.6H828.651V307.8H826.539V315H825.207ZM829.996 311.88C829.996 313.116 830.824 313.992 831.988 313.992C833.152 313.992 834.004 313.092 834.004 311.868C834.004 310.644 833.152 309.744 831.988 309.744C830.812 309.744 829.996 310.656 829.996 311.88ZM828.676 311.88C828.676 309.984 830.104 308.58 831.988 308.58C833.92 308.58 835.312 309.984 835.312 311.868C835.312 313.752 833.896 315.156 831.988 315.156C830.068 315.156 828.676 313.776 828.676 311.88ZM842 315L840.596 310.512L839.18 315H837.74L835.748 308.736H837.164L838.532 313.536C838.532 313.536 838.544 313.512 839.972 308.736H841.22C842.636 313.512 842.648 313.536 842.648 313.536L844.028 308.736H845.444L843.452 315H842ZM849.311 308.58C850.931 308.58 851.495 309.864 851.495 311.232V315H850.199V311.124C850.199 310.26 849.659 309.756 848.939 309.756C848.111 309.756 847.571 310.368 847.571 311.22V315H846.263V308.736H847.547V309.552C847.823 309.06 848.471 308.58 849.311 308.58Z" fill="#292724"/>
<path d="M800 226.5C800 222.358 803.358 219 807.5 219C811.642 219 815 222.358 815 226.5V253H800V226.5Z" fill="#EDEDED"/>
<line x1="808" y1="264.756" x2="808" y2="273.974" stroke="#ECECEE" stroke-width="2" stroke-linecap="round" stroke-linejoin="round"/>
<path d="M866.948 297V288.6H868.676C871.544 288.6 873.176 290.172 873.176 292.8C873.176 295.584 871.484 297 868.676 297H866.948ZM867.92 296.136H868.868C870.884 296.136 872.18 294.996 872.18 292.8C872.18 290.7 870.884 289.476 868.868 289.476H867.92V296.136ZM877.18 293.832V292.944H880.24V293.832H877.18Z" fill="#57707A"/>
<path d="M884.653 297V288.6H885.997L890.113 294.84V288.6H891.421V297H890.101L885.973 290.796V297H884.653ZM892.645 295.068C892.645 293.856 893.629 293.004 895.069 293.004C895.789 293.004 896.329 293.244 896.569 293.46V292.872C896.569 292.152 896.065 291.72 895.237 291.72C894.541 291.72 893.941 291.96 893.485 292.212L892.981 291.3C893.485 290.976 894.325 290.58 895.369 290.58C897.229 290.58 897.865 291.588 897.865 292.956V297H896.725L896.617 296.532C896.293 296.892 895.789 297.156 895.009 297.156C893.689 297.156 892.645 296.328 892.645 295.068ZM893.953 295.032C893.953 295.656 894.493 296.112 895.285 296.112C896.053 296.112 896.605 295.68 896.605 295.032C896.605 294.372 896.065 293.952 895.273 293.952C894.481 293.952 893.953 294.408 893.953 295.032ZM899.24 297V290.736H900.548V297H899.24ZM899.072 289.188C899.072 288.732 899.432 288.372 899.888 288.372C900.344 288.372 900.704 288.732 900.704 289.188C900.704 289.644 900.344 290.004 899.888 290.004C899.432 290.004 899.072 289.644 899.072 289.188ZM905.089 290.58V291.9C903.721 291.9 903.325 292.944 903.325 294.3V297H902.017V290.736H903.301V291.72C903.541 291.096 904.201 290.58 905.089 290.58ZM906.879 293.88C906.879 295.116 907.707 295.992 908.871 295.992C910.035 295.992 910.887 295.092 910.887 293.868C910.887 292.644 910.035 291.744 908.871 291.744C907.695 291.744 906.879 292.656 906.879 293.88ZM905.559 293.88C905.559 291.984 906.987 290.58 908.871 290.58C910.803 290.58 912.195 291.984 912.195 293.868C912.195 295.752 910.779 297.156 908.871 297.156C906.951 297.156 905.559 295.776 905.559 293.88ZM913.279 297V288.324H914.587V291.576C914.755 291.3 915.427 290.58 916.615 290.58C918.403 290.58 919.591 291.948 919.591 293.88C919.591 295.8 918.319 297.156 916.531 297.156C915.319 297.156 914.683 296.4 914.515 296.184V297H913.279ZM914.539 293.892C914.539 295.044 915.247 296.004 916.399 296.004C917.467 296.004 918.271 295.176 918.271 293.892C918.271 292.632 917.503 291.744 916.411 291.744C915.367 291.744 914.539 292.524 914.539 293.892ZM920.673 297V290.736H921.981V297H920.673ZM920.505 289.188C920.505 288.732 920.865 288.372 921.321 288.372C921.777 288.372 922.137 288.732 922.137 289.188C922.137 289.644 921.777 290.004 921.321 290.004C920.865 290.004 920.505 289.644 920.505 289.188Z" fill="#292724"/>
<path d="M871.424 312.276H868.136L867.128 315H866.144L869.288 306.6H870.272L873.416 315H872.432L871.424 312.276ZM871.136 311.436L869.78 307.668L868.436 311.436H871.136ZM877.109 311.832V310.944H880.169V311.832H877.109Z" fill="#57707A"/>
<path d="M890.703 313.116L891.099 314.28C890.679 314.604 889.755 315.156 888.459 315.156C885.915 315.156 884.139 313.272 884.139 310.8C884.139 308.328 885.987 306.444 888.447 306.444C889.635 306.444 890.499 306.888 890.991 307.26L890.595 308.436C890.235 308.16 889.467 307.692 888.483 307.692C886.731 307.692 885.519 309.06 885.519 310.8C885.519 312.54 886.695 313.908 888.495 313.908C889.587 313.908 890.367 313.368 890.703 313.116ZM891.836 313.068C891.836 311.856 892.82 311.004 894.26 311.004C894.98 311.004 895.52 311.244 895.76 311.46V310.872C895.76 310.152 895.256 309.72 894.428 309.72C893.732 309.72 893.132 309.96 892.676 310.212L892.172 309.3C892.676 308.976 893.516 308.58 894.56 308.58C896.42 308.58 897.056 309.588 897.056 310.956V315H895.916L895.808 314.532C895.484 314.892 894.98 315.156 894.2 315.156C892.88 315.156 891.836 314.328 891.836 313.068ZM893.144 313.032C893.144 313.656 893.684 314.112 894.476 314.112C895.244 314.112 895.796 313.68 895.796 313.032C895.796 312.372 895.256 311.952 894.464 311.952C893.672 311.952 893.144 312.408 893.144 313.032ZM898.431 317.244V308.736H899.667V309.564C899.835 309.336 900.471 308.58 901.683 308.58C903.471 308.58 904.743 309.948 904.743 311.856C904.743 313.8 903.555 315.156 901.767 315.156C900.579 315.156 899.907 314.436 899.739 314.172V317.244H898.431ZM899.691 311.856C899.691 313.212 900.519 313.992 901.563 313.992C902.655 313.992 903.423 313.116 903.423 311.856C903.423 310.572 902.619 309.744 901.551 309.744C900.399 309.744 899.691 310.704 899.691 311.856ZM905.465 311.892C905.465 309.948 906.797 308.58 908.513 308.58C910.409 308.58 911.525 309.888 911.525 311.856C911.525 311.964 911.525 312.072 911.513 312.18H906.797C906.821 313.296 907.625 314.016 908.741 314.016C909.689 314.016 910.229 313.488 910.469 313.14L911.333 313.788C911.033 314.304 910.205 315.156 908.717 315.156C906.761 315.156 905.465 313.788 905.465 311.892ZM906.845 311.28H910.193C910.145 310.248 909.425 309.672 908.525 309.672C907.625 309.672 906.929 310.296 906.845 311.28ZM917.207 315V307.8H915.095V306.6H920.651V307.8H918.539V315H917.207ZM921.996 311.88C921.996 313.116 922.824 313.992 923.988 313.992C925.152 313.992 926.004 313.092 926.004 311.868C926.004 310.644 925.152 309.744 923.988 309.744C922.812 309.744 921.996 310.656 921.996 311.88ZM920.676 311.88C920.676 309.984 922.104 308.58 923.988 308.58C925.92 308.58 927.312 309.984 927.312 311.868C927.312 313.752 925.896 315.156 923.988 315.156C922.068 315.156 920.676 313.776 920.676 311.88ZM934 315L932.596 310.512L931.18 315H929.74L927.748 308.736H929.164L930.532 313.536C930.532 313.536 930.544 313.512 931.972 308.736H933.22C934.636 313.512 934.648 313.536 934.648 313.536L936.028 308.736H937.444L935.452 315H934ZM941.311 308.58C942.931 308.58 943.495 309.864 943.495 311.232V315H942.199V311.124C942.199 310.26 941.659 309.756 940.939 309.756C940.111 309.756 939.571 310.368 939.571 311.22V315H938.263V308.736H939.547V309.552C939.823 309.06 940.471 308.58 941.311 308.58Z" fill="#292724"/>
<path d="M892 241.5C892 237.358 895.358 234 899.5 234C903.642 234 907 237.358 907 241.5V253H892V241.5Z" fill="#EDEDED"/>
<line x1="900" y1="264.756" x2="900" y2="273.974" stroke="#ECECEE" stroke-width="2" stroke-linecap="round" stroke-linejoin="round"/>
</svg>
