<svg width="112" height="106" viewBox="0 0 112 106" fill="none" xmlns="http://www.w3.org/2000/svg">
<path opacity="0.3" d="M98.7552 50.7559C98.7552 50.7559 106.164 69.2361 104.871 70.3752C103.579 71.5142 87.6429 62.5852 86.5249 63.5703C85.4069 64.5553 90.128 83.3661 88.416 84.8745C86.7041 86.383 76.0447 78.3004 74.7956 79.2775C73.5465 80.2547 73.7425 97.8039 72.1704 99.1892C70.5982 100.575 55.452 94.6547 55.452 94.6547" stroke="url(#paint0_linear_392_10938)" stroke-width="2" stroke-linecap="round"/>
<path opacity="0.08" d="M4.27127 5.89895C4.27127 2.64105 6.91233 0 10.1702 0H11.5324C15.5427 0 18.7936 3.25094 18.7936 7.26117V14.5223V14.5223C18.7936 11.805 16.0626 9.93679 13.5301 10.9217L11.5324 11.6985C8.03875 13.0572 4.27127 10.48 4.27127 6.73138V5.89895Z" fill="#57707A"/>
<rect opacity="0.2" x="29.8989" y="17.085" width="53.8181" height="53.8179" rx="26.909" fill="#FFC107"/>
<rect opacity="0.2" x="0.5" y="55.1719" width="8.39681" height="8.39678" rx="4.19839" stroke="#57707A"/>
<rect opacity="0.2" x="84.217" y="14.168" width="8.39681" height="8.39678" rx="4.19839" stroke="#57707A"/>
<path d="M58.1075 77.47H36.7148C34.2982 77.47 31.9806 76.51 30.2719 74.8013C28.5631 73.0925 27.6031 70.7749 27.6031 68.3583C27.6037 66.1081 28.4369 63.9376 29.9424 62.265L43.808 46.8525H51.0143L64.88 62.265C66.3854 63.9376 67.2186 66.1081 67.2192 68.3583C67.2192 70.7749 66.2592 73.0925 64.5504 74.8013C62.8417 76.51 60.5241 77.47 58.1075 77.47Z" fill="white" stroke="#292724" stroke-width="3" stroke-miterlimit="10" stroke-linecap="square"/>
<path d="M54.6175 37.8538L53.8818 41.6267C53.5692 43.1093 52.7549 44.4387 51.5761 45.3906C50.3973 46.3426 48.9263 46.8588 47.4112 46.8523C45.8854 46.8553 44.406 46.3283 43.2258 45.3614C42.0456 44.3945 41.2378 43.0477 40.9405 41.5513L40.2048 37.7783L54.6175 37.8538Z" fill="white" stroke="#292724" stroke-width="3" stroke-miterlimit="10" stroke-linecap="square"/>
<path d="M60.0129 41.457L52.8065 45.0602" stroke="#292724" stroke-width="3" stroke-miterlimit="10" stroke-linecap="square"/>
<path d="M61.8239 46.8525H51.0143" stroke="#292724" stroke-width="3" stroke-miterlimit="10" stroke-linecap="square"/>
<path d="M43.808 68.4717H48.3167C49.0321 68.4717 49.7183 68.1875 50.2242 67.6816C50.7301 67.1757 51.0143 66.4895 51.0143 65.774C51.0168 65.4182 50.9489 65.0654 50.8144 64.7359C50.68 64.4064 50.4817 64.1068 50.2309 63.8543C49.9802 63.6018 49.6819 63.4014 49.3534 63.2646C49.0249 63.1279 48.6725 63.0575 48.3167 63.0575H46.4302C45.7147 63.0575 45.0286 62.7733 44.5227 62.2674C44.0167 61.7615 43.7325 61.0753 43.7325 60.3598C43.7324 59.9991 43.8046 59.6421 43.9448 59.3098C44.0851 58.9775 44.2906 58.6766 44.5491 58.4251C44.8077 58.1736 45.1141 57.9765 45.4501 57.8455C45.7862 57.7144 46.1451 57.6521 46.5057 57.6622H51.0143" fill="white"/>
<path d="M43.808 68.4717H48.3167C49.0321 68.4717 49.7183 68.1875 50.2242 67.6816C50.7301 67.1757 51.0143 66.4895 51.0143 65.774C51.0168 65.4182 50.9489 65.0654 50.8144 64.7359C50.68 64.4064 50.4817 64.1068 50.2309 63.8543C49.9802 63.6018 49.6819 63.4014 49.3534 63.2646C49.0249 63.1279 48.6725 63.0575 48.3167 63.0575H46.4302C45.7147 63.0575 45.0286 62.7733 44.5227 62.2674C44.0167 61.7615 43.7325 61.0753 43.7325 60.3598C43.7324 59.9991 43.8046 59.6421 43.9448 59.3098C44.0851 58.9775 44.2906 58.6766 44.5491 58.4251C44.8077 58.1736 45.1141 57.9765 45.4501 57.8455C45.7862 57.7144 46.1451 57.6521 46.5057 57.6622H51.0143" stroke="#292724" stroke-width="3" stroke-miterlimit="10" stroke-linecap="square"/>
<path d="M47.4112 55.8691V57.6613" stroke="#292724" stroke-width="3" stroke-miterlimit="10" stroke-linecap="square"/>
<path d="M47.4112 68.4717V70.2638" stroke="#292724" stroke-width="3" stroke-miterlimit="10" stroke-linecap="square"/>
<defs>
<linearGradient id="paint0_linear_392_10938" x1="58.8059" y1="98.461" x2="104.957" y2="57.7948" gradientUnits="userSpaceOnUse">
<stop stop-color="#EDEDED"/>
<stop offset="1" stop-color="#FFC107"/>
</linearGradient>
</defs>
</svg>
