<svg width="21" height="21" viewBox="0 0 21 21" fill="none" xmlns="http://www.w3.org/2000/svg">
<circle cx="10.5" cy="10.5" r="10.5" fill="#292724"/>
<path d="M9.415 13.18V12.46C9.415 10.435 11.92 9.955 11.92 8.245C11.92 7.42 11.38 6.775 10.39 6.775C9.415 6.775 9.01 7.45 8.8 7.9L7.51 7.315C7.795 6.505 8.62 5.305 10.465 5.305C12.37 5.305 13.6 6.505 13.6 8.155C13.6 10.51 11.005 10.99 11.005 12.55V13.18H9.415ZM9.16 15.145C9.16 14.56 9.64 14.08 10.225 14.08C10.81 14.08 11.29 14.56 11.29 15.145C11.29 15.715 10.81 16.195 10.225 16.195C9.64 16.195 9.16 15.715 9.16 15.145Z" fill="white"/>
</svg>
